<?xml version="1.0" encoding="utf-8"?>
<!-- Generator: Adobe Illustrator 26.4.1, SVG Export Plug-In . SVG Version: 6.00 Build 0)  -->
<svg version="1.1" id="Vrstva_1" xmlns="http://www.w3.org/2000/svg" xmlns:xlink="http://www.w3.org/1999/xlink" x="0px" y="0px"
	 viewBox="0 0 25.5118103 25.5118103" style="enable-background:new 0 0 25.5118103 25.5118103;" xml:space="preserve">
<style type="text/css">
	.st0{fill-rule:evenodd;clip-rule:evenodd;}
</style>
<path class="st0" d="M14.2074528,6.8499799h-2.905942V5.8342953h2.905942V6.8499799z M12.7537451,18.1267891
	c-0.5417156,0-0.9826889,0.4409752-0.9826889,0.9866219c0,0.5420113,0.4409733,0.9859314,0.9826889,0.9859314
	c0.547019,0,0.9880896-0.4439201,0.9880896-0.9859314C13.7418346,18.5677643,13.3007641,18.1267891,12.7537451,18.1267891z
	 M9.6251068,17.4490776h6.2624807V7.8646827H9.6251068V17.4490776z M25.5118103,0v3.778182v2.4192224v13.1167068v6.1974049
	H20.974926h-8.2142096c-0.0015707,0-0.0030432,0.0002937-0.0047131,0.0002937c-0.0015707,0-0.0031414-0.0002937-0.0047131-0.0002937
	h-8.214406H0v-6.1974049V6.1974044V3.778182V0h12.7512903c0.0015717,0,0.0031424,0,0.0047131,0c0.0016699,0,0.0031424,0,0.0047131,0
	H25.5118103z M14.873085,4.8298044h-4.2342615c-1.3694601,0-2.4860802,1.1174102-2.4860802,2.4839301v10.8843422
	c0,1.3681889,1.1166201,2.4849129,2.4860802,2.4849129h4.2342615c1.3661232,0,2.4839211-1.116724,2.4839211-2.4849129V7.3137345
	C17.3570061,5.9472146,16.2392082,4.8298044,14.873085,4.8298044z"/>
</svg>
