<?xml version="1.0" encoding="utf-8"?>
<!-- Generator: Adobe Illustrator 26.4.1, SVG Export Plug-In . SVG Version: 6.00 Build 0)  -->
<svg version="1.1" id="Vrstva_1" xmlns="http://www.w3.org/2000/svg" xmlns:xlink="http://www.w3.org/1999/xlink" x="0px" y="0px"
	 viewBox="0 0 25.5118103 25.5118103" style="enable-background:new 0 0 25.5118103 25.5118103;" xml:space="preserve">
<style type="text/css">
	.st0{fill-rule:evenodd;clip-rule:evenodd;}
</style>
<path class="st0" d="M12.7638588,7.8743734c1.7466097,0,3.1862764,1.4223852,3.1862764,3.1849995
	c0,1.7636948-1.4396667,3.1876507-3.1862764,3.1876507c-1.7635965,0-3.2051287-1.4239559-3.2051287-3.1876507
	C9.5587301,9.2967587,11.0002623,7.8743734,12.7638588,7.8743734z M25.5118103,0.0001964v3.7781672v2.4189186v13.1172466v6.1970844
	h-4.5366879H4.5369821H0v-6.1970844V6.1972823V3.7783637V0.0001964H25.5118103z M12.7647429,5.3419466
	c-4.3957844-0.0227799-7.9377065,4.9804096-4.962441,8.6555758l4.962441,6.1748943l4.944766-6.1748943
	C20.6828098,10.3223562,17.1407909,5.3191667,12.7647429,5.3419466z"/>
</svg>
