<?xml version="1.0" encoding="utf-8"?>
<!-- Generator: Adobe Illustrator 26.4.1, SVG Export Plug-In . SVG Version: 6.00 Build 0)  -->
<svg version="1.1" id="Vrstva_1" xmlns="http://www.w3.org/2000/svg" xmlns:xlink="http://www.w3.org/1999/xlink" x="0px" y="0px"
	 viewBox="0 0 25.5118103 25.5118103" style="enable-background:new 0 0 25.5118103 25.5118103;" xml:space="preserve">
<style type="text/css">
	.st0{fill-rule:evenodd;clip-rule:evenodd;}
</style>
<path class="st0" d="M12.7560034,19.5309887c3.7250471,0,6.7735624-3.0319214,6.7735624-6.7747393
	c0-3.7432117-3.0327072-6.7736602-6.7735624-6.7736602c-3.7430153,0-6.7738557,3.0304484-6.7738557,6.7736602
	C5.9821477,16.4990673,9.0298767,19.5309887,12.7560034,19.5309887z M11.8821096,8.3888416
	c0-0.4815254,0.3744984-0.855238,0.8540592-0.855238c0.48349,0,0.8590679,0.392467,0.8590679,0.855238v3.8144979
	l2.4767523,1.0876541c0.4248695,0.1795902,0.624197,0.6777096,0.4090614,1.1226101
	c-0.1415901,0.3034077-0.4624767,0.5014582-0.7825775,0.5014582c-0.1079111,0-0.2359514-0.0178709-0.3398361-0.0743303
	l-2.9772291-1.2998438c-0.3061571-0.1425724-0.4992981-0.4449987-0.4992981-0.7846384V8.3888416z M12.7596369,0.0004419
	c-0.001277,0-0.0023565-0.0003928-0.0036335-0.0003928c-0.0011778,0-0.0023565,0.0003928-0.0035343,0.0003928H0v3.7781675v2.4191151
	v13.1166563v6.197382h4.5369821h8.2143078c0.0015717,0,0.0031424,0,0.0047131,0c0.0016699,0,0.0031424,0,0.0047131,0h8.2143087
	h4.5367851v-6.197382V6.1977243V3.7786093V0.0004419H12.7596369z M21.2235451,12.7562494
	c0,4.6704226-3.7963333,8.4677382-8.4675417,8.4677382c-4.6714048,0-8.4690132-3.7973156-8.4690132-8.4677382
	c0-4.6707182,3.7976089-8.4683266,8.4690132-8.4683266C17.4272118,4.2879224,21.2235451,8.0855312,21.2235451,12.7562494z"/>
</svg>
