<?xml version="1.0" encoding="utf-8"?>
<!-- Generator: Adobe Illustrator 26.4.1, SVG Export Plug-In . SVG Version: 6.00 Build 0)  -->
<svg version="1.1" id="Vrstva_1" xmlns="http://www.w3.org/2000/svg" xmlns:xlink="http://www.w3.org/1999/xlink" x="0px" y="0px"
	 viewBox="0 0 25.5118103 25.5118103" style="enable-background:new 0 0 25.5118103 25.5118103;" xml:space="preserve">
<style type="text/css">
	.st0{fill-rule:evenodd;clip-rule:evenodd;}
</style>
<path class="st0" d="M8.7492495,14.0098944c-0.4754381,0.4845695-1.4375067,1.461956-1.9496675,1.9587002l0.0118809-6.3758907
	l0.7956362,0.7882719c1.3126082,1.3015127,2.1120744,2.1062813,2.3747334,2.3877926
	c-0.1030016,0.1139011-0.3120489,0.3248138-0.7073631,0.7093267l-0.0683403,0.0703049
	C9.1435814,13.606823,8.9773455,13.7785578,8.7492495,14.0098944z M8.4255161,9.1724491
	C8.5662222,9.3110943,8.679141,9.4220495,8.7256832,9.4705553c0.4992981,0.5231581,1.0787191,1.0955095,1.6375208,1.6488123
	c0.3190203,0.3168602,0.6370583,0.6307745,0.9363422,0.9331026l0.2030582,0.2096357
	c0.1435537,0.1439476,0.2832785,0.2914295,0.4389105,0.4353762c0.4469624,0.4178982,1.0868683,0.4297791,1.5346165,0.0089359
	c0.1357975-0.1297102,0.2713985-0.267765,0.4071951-0.4043484l2.8167868-2.8215971
	c0.3775406-0.3667412,0.7063808-0.6974459,0.9371281-0.9322195L7.7932682,8.5433435
	C8.0001554,8.7542572,8.2638941,9.0130863,8.4255161,9.1724491z M17.3429642,10.9060974l-0.5765724,0.5809927
	c-0.1634865,0.1670218-0.330019,0.3340435-0.5004768,0.5016546l-0.1673164,0.1644688
	c-0.1505251,0.1438484-0.4558973,0.4402847-0.6131001,0.6135912c0.1653528,0.1765461,0.5100002,0.5142231,0.6368618,0.6423607
	l0.1435547,0.1366816l1.840971,1.8491201c0.2507782,0.2637396,0.4319382,0.447257,0.5617466,0.5736275l0.0039272-6.4036779
	C18.4269867,9.8006716,18.0187111,10.2092409,17.3429642,10.9060974z M13.8249035,14.2300367
	c-0.3158779,0.1633892-0.728179,0.2614813-1.1017933,0.2614813c-0.9331026-0.0019636-1.4395685-0.4443111-1.7158766-0.6813431
	c-0.0039272-0.0029459-0.0059891-0.007266-0.0090332-0.0108986c-0.2445917,0.2287827-0.8963795,0.8747768-2.48559,2.4759674
	l-0.7076578,0.7084427l5.6307249,0.0174789c0.7082462,0.0043201,1.7982569,0.0092297,2.7502127,0.0092297
	c0.72435,0,1.1809349-0.0023575,1.466177-0.005991l-3.2238817-3.2100372
	C14.3104544,13.9065981,14.1321411,14.0736198,13.8249035,14.2300367z M25.5118103-0.0000003v3.7781675v2.4192133v13.1170502
	v6.197382h-4.5367851h-8.2153883c-0.001277,0-0.0024548,0-0.0036335,0c-0.0011778,0-0.0023565,0-0.0035343,0H4.5369821H0v-6.197382
	V6.1973805V3.7781672v-3.7781675h12.7511921c0.0016699,0,0.0032406,0,0.0048113,0c0.0016699,0,0.0031424,0,0.0047131,0H25.5118103z
	 M20.005003,7.0929747c-0.0543976-0.0159068-0.1298084-0.0370178-2.9356937-0.0370178
	c-1.5006437,0-3.1770468,0.0059896-3.918973,0.0086408l-0.3915834,0.0022583l-0.772954-0.0039277
	C11.0557404,7.0609646,9.493434,7.0542874,8.1421385,7.0542874c-2.4572129,0-2.5582509,0.0208163-2.6137285,0.0304394
	C5.4244266,7.1078014,5.3459725,7.199904,5.3459725,7.3065386L5.3392954,18.2129307
	c0,0.1158657,0.0881748,0.2128773,0.2039413,0.2247581c0.0912189,0.0089359,0.4447041,0.0208168,2.4225516,0.0208168
	c1.3671041,0,2.9919581-0.0055981,3.9628634-0.0076599l0.8184166-0.0032387l0.5141249,0.0022583
	c0.8134079,0.0030422,2.4234352,0.0086403,3.8578978,0.0086403c2.7483463,0,2.8286667-0.0217991,2.8859119-0.0382938
	c0.0982876-0.0287704,0.1626034-0.1182213,0.1626034-0.2171974l0.0020618-10.8932362
	C20.1696682,7.2074647,20.1053543,7.1189952,20.005003,7.0929747z"/>
</svg>
