<?xml version="1.0" encoding="utf-8"?>
<!-- Generator: Adobe Illustrator 26.4.1, SVG Export Plug-In . SVG Version: 6.00 Build 0)  -->
<svg version="1.1" id="Vrstva_1" xmlns="http://www.w3.org/2000/svg" xmlns:xlink="http://www.w3.org/1999/xlink" x="0px" y="0px"
	 viewBox="0 0 210.8324432 142.1863556" style="enable-background:new 0 0 210.8324432 142.1863556;" xml:space="preserve">
<path d="M57.9102325,133.4998016c-0.2727051-0.4118652-0.59021-0.7641602-0.986393-1.0129547
	c-0.4904175-0.3078613-1.0311317-0.4616699-1.6213417-0.4616699c-0.705265,0-1.3098221,0.1586914-1.8133011,0.4760742
	c-0.5039101,0.3173981-0.8869667,0.7812653-1.14991,1.3903961c-0.2630005,0.6098633-0.3942871,1.3439941-0.3942871,2.2036133
	v2.2038727c0,0.8530273,0.1347046,1.5842285,0.4041138,2.1933746c0.2692909,0.6096191,0.6622963,1.072998,1.1784134,1.3903809
	c0.5164795,0.3178711,1.1400795,0.4765625,1.8714676,0.4765625c0.6606445,0,1.2171059-0.1669922,1.6693153-0.5004883
	c0.3746986-0.2763672,0.6411171-0.6213379,0.8419228-1.0080566v1.3354492h1.96241v-13.9907837h-1.96241V133.4998016z
	 M57.9102325,138.5103149c0,0.4304199-0.0769043,0.7990723-0.2313232,1.1066895
	c-0.1538086,0.3083496-0.3765869,0.543457-0.6682777,0.7072906c-0.2919312,0.1638184-0.6466064,0.2458496-1.0632973,0.2458496
	c-0.6480103,0-1.149601-0.197998-1.5057411-0.5927887c-0.3560829-0.3935547-0.5336952-0.9536133-0.5336952-1.6782227v-2.1748199
	c0-0.7316895,0.1776123-1.2990723,0.5336952-1.703125c0.3561401-0.4040527,0.8577309-0.605957,1.5057411-0.605957
	c0.4166908,0,0.7713661,0.078125,1.0632973,0.2353516c0.2916908,0.1574707,0.5144691,0.3867188,0.6682777,0.6879883
	c0.1544189,0.3017578,0.2313232,0.6640625,0.2313232,1.0874023V138.5103149z M71.2218704,135.7781219l6.4365463-3.9360504v2.2422028
	l-2.9343338,1.6938477l2.9343338,1.683609v2.2612305L71.2218704,135.7781219z M57.1289177,8.466342h31.7361488v5.9597406H63.7809219
	v50.1039619h18.0160675v5.9599838H63.7809219v36.1058502h25.0841446v6.0986633H57.1289177V8.466342z M32.8702164,132.5591125
	c-0.6157227-0.3361816-1.3568764-0.5048828-2.2226028-0.5048828c-0.8660927,0-1.6066971,0.1687012-2.2224827,0.5048828
	c-0.6157246,0.3369293-1.0856361,0.827652-1.4096127,1.4724274c-0.3240356,0.6447754-0.4858418,1.4189453-0.4858418,2.3232422
	v1.6269684c0,0.9165039,0.1618061,1.7011719,0.4858418,2.352066c0.3239765,0.6513672,0.7938881,1.1469727,1.4096127,1.4870605
	c0.6157856,0.3395996,1.35639,0.5097656,2.2224827,0.5097656c0.8657265,0,1.6068802-0.170166,2.2226028-0.5097656
	c0.6157875-0.3400879,1.0852089-0.8330078,1.4091873-1.4770508c0.3240356-0.6447906,0.4862061-1.4226227,0.4862061-2.3337555
	v-1.6552887c0-0.9042969-0.1621704-1.6784668-0.4862061-2.3232422
	C33.9554253,133.3867645,33.4860039,132.8960419,32.8702164,132.5591125z M32.8027115,138.0100708
	c0,0.7763672-0.1875,1.3793945-0.5626831,1.8093262c-0.375309,0.4294434-0.9061947,0.6447906-1.5924149,0.6447906
	c-0.6865883,0-1.2169857-0.2153473-1.5922928-0.6447906c-0.3752441-0.4299316-0.562624-1.032959-0.562624-1.8093262v-1.6552887
	c0-0.7753906,0.1873798-1.3752441,0.562624-1.7988281c0.3753071-0.4233398,0.9057045-0.6352539,1.5922928-0.6352539
	c0.6862202,0,1.2171059,0.2119141,1.5924149,0.6352539c0.3751831,0.423584,0.5626831,1.0234375,0.5626831,1.7988281V138.0100708z
	 M21.6729069,128.1955719h1.4433041v1.8664703h-1.4045467c-0.1864624,0-0.3272705,0.0712891-0.4232807,0.2121582
	c-0.0964355,0.140625-0.1445312,0.3239746-0.1445312,0.5483398v1.3757324h1.9723587v1.6740875h-1.9723587v8.3139954h-1.96241
	v-8.3139954h-1.0585976v-1.6740875h1.0585976v-1.3566895c0-0.885498,0.2032471-1.5473633,0.6105976-1.9868164
	C20.1994514,128.4152985,20.8264675,128.1955719,21.6729069,128.1955719z M30.0845013,8.466342h6.6524296v104.2282028h-6.6524296
	V80.0479279L6.6526446,25.3375034v87.3570404h-6.6526752V8.466342h6.6526752l23.4318562,54.7099342V8.466342z
	 M45.5778465,132.5591125c-0.6157837-0.3361816-1.3569984-0.5048828-2.2224808-0.5048828
	c-0.8662148,0-1.6069412,0.1687012-2.2227249,0.5048828c-0.6156654,0.3369293-1.0855751,0.827652-1.4096146,1.4724274
	c-0.3239746,0.6447754-0.4856567,1.4189453-0.4856567,2.3232422v1.6269684c0,0.9165039,0.1616821,1.7011719,0.4856567,2.352066
	c0.3240395,0.6513672,0.7939491,1.1469727,1.4096146,1.4870605c0.6157837,0.3395996,1.3565102,0.5097656,2.2227249,0.5097656
	c0.8654823,0,1.6066971-0.170166,2.2224808-0.5097656c0.6157265-0.3400879,1.0852127-0.8330078,1.4091263-1.4770508
	c0.3239746-0.6447906,0.4862061-1.4226227,0.4862061-2.3337555v-1.6552887c0-0.9042969-0.1622314-1.6784668-0.4862061-2.3232422
	C46.6630592,133.3867645,46.193573,132.8960419,45.5778465,132.5591125z M45.5102806,138.0100708
	c0,0.7763672-0.1873169,1.3793945-0.5626221,1.8093262c-0.37537,0.4294434-0.9063148,0.6447906-1.5922928,0.6447906
	c-0.6868324,0-1.2172279-0.2153473-1.5925369-0.6447906c-0.3751831-0.4299316-0.562561-1.032959-0.562561-1.8093262v-1.6552887
	c0-0.7753906,0.1873779-1.3752441,0.562561-1.7988281c0.375309-0.4233398,0.9057045-0.6352539,1.5925369-0.6352539
	c0.6859779,0,1.2169228,0.2119141,1.5922928,0.6352539c0.3753052,0.423584,0.5626221,1.0234375,0.5626221,1.7988281V138.0100708z
	 M177.9953613,132.4919739c-0.5900879-0.2919922-1.298584-0.4377441-2.1262207-0.4377441
	c-0.7568359,0-1.4448395,0.1262207-2.0639801,0.380127c-0.6191406,0.2534332-1.1174316,0.6079254-1.4958496,1.0630035
	l1.4333496,0.9816895c0.295166-0.2182617,0.6335449-0.3886719,1.0153809-0.5100098
	c0.3813629-0.1218262,0.7708893-0.1826172,1.1685944-0.1826172c0.6413574,0,1.1368408,0.1816406,1.4864502,0.5432129
	c0.3496094,0.3625488,0.5244141,0.8710938,0.5244141,1.5251465v0.4233398h-2.7515869
	c-1.1290436,0-1.9723053,0.2470856-2.5301666,0.7417145c-0.5581055,0.4931641-0.8374023,1.234375-0.8374023,2.222168
	c0,1.0390625,0.3049316,1.8134918,0.9143066,2.3235016c0.6092529,0.5100098,1.5297852,0.7651367,2.7612457,0.7651367
	c0.416748,0,0.7921143-0.0429688,1.1257324-0.1298828c0.3334961-0.0869141,0.626709-0.2165527,0.8803711-0.3898926
	c0.1645508-0.112793,0.3063965-0.253418,0.4375-0.4074707v0.782959h1.8664703v-6.4184875
	c0-0.7819824-0.1538086-1.4509277-0.4614258-2.0058594C179.0344391,133.2073212,178.5854492,132.7837372,177.9953613,132.4919739z
	 M177.9375,139.7424927c0,0.3398438-0.1845703,0.5903473-0.5532227,0.7500153
	c-0.3688965,0.1608887-0.9282227,0.2409668-1.6787109,0.2409668c-0.6865234,0-1.1978912-0.1223145-1.5344391-0.3657227
	c-0.3370361-0.2441559-0.5053711-0.6194-0.5053711-1.1257477c0-0.4682617,0.126709-0.8164062,0.3798828-1.0439453
	c0.2536621-0.2272949,0.6367188-0.3415527,1.1501617-0.3415527H177.9375V139.7424927z M165.9952545,132.5300598
	c-0.5037842-0.3171387-1.1079712-0.4758301-1.8135986-0.4758301c-0.5966797,0-1.138382,0.1586914-1.6259918,0.4758301
	c-0.3931274,0.2558746-0.7091064,0.6225739-0.9812012,1.0517731v-5.386261h-1.9630127v13.9907837h1.9630127v-1.3349609
	c0.2156982,0.4238281,0.4976196,0.78125,0.8851929,1.0314941c0.4614258,0.2983398,1.0036163,0.4477539,1.6258087,0.4477539
	c0.7244873,0,1.3468018-0.1586914,1.8665771-0.4763184c0.5192261-0.3178711,0.9140015-0.7775879,1.1831055-1.3808594
	c0.2694244-0.6030426,0.404129-1.327652,0.404129-2.1743317v-2.1748199c0-0.8598633-0.1314697-1.5939941-0.3944244-2.2036133
	C166.8819733,133.3113251,166.4987946,132.8474579,165.9952545,132.5300598z M165.5767975,138.2991333
	c0,0.7185059-0.1780396,1.2744141-0.5342407,1.6694336c-0.3557129,0.3940582-0.857666,0.5918121-1.5056763,0.5918121
	c-0.4167023,0-0.7710114-0.0808105-1.0628204-0.2412109c-0.2922974-0.1601715-0.5151367-0.3908844-0.6688843-0.6923981
	c-0.1538086-0.3017578-0.2307129-0.6672363-0.2307129-1.0969238v-2.7234039c0-0.4165039,0.0769043-0.7744141,0.2307129-1.0722656
	c0.1537476-0.298584,0.3765869-0.5244141,0.6688843-0.6787109c0.2918091-0.1540527,0.6461182-0.2307129,1.0628204-0.2307129
	c0.6480103,0,1.1499634,0.2019043,1.5056763,0.6057129c0.3562012,0.4042969,0.5342407,0.972168,0.5342407,1.7036133V138.2991333z
	 M153.6094055,42.1493378V26.5237865c0-9.1811886-7.4499207-17.0957718-16.6069946-17.6436234l-6.589386-0.4028339
	l-7.502655-7.5032034C122.2904968,0.3549819,121.434166,0,120.5605698,0h-7.4270325
	c-1.8328934,0-3.3239899,1.4912169-3.3239899,3.3239877v52.0871239l-12.363266,11.2808075l4.1656036,4.5666656l10.1480484-9.2590675
	c0.6519775,0.979496,1.469429,1.8925819,2.5258865,2.625988l0.7495193,0.5239258l-0.3184204,0.8527832
	c-1.3479691,3.593277-0.6875076,6.8635559,0.1040039,8.9748917l0.3189087,0.8735352l-0.7700806,0.5136795
	c-3.3656158,2.2783279-4.5602036,6.2871323-4.5602036,9.028595v27.3016281h6.6396179V91.4708252
	c0-2.5786285,0.9514771-4.7788315,2.6789017-6.195343c1.7257156-1.4155273,4.0681305-1.9189529,6.5955429-1.4145508
	l10.6606827,2.1362381c5.7331848,1.1484375,10.5764008,7.0573959,10.5764008,12.9023895v13.7949829h6.6487122V98.9076157
	c0-9.115509-6.9906921-17.6458206-15.9146729-19.4195099l-10.6691132-2.1362381
	c-0.7654419-0.1625977-1.5984573-0.2626953-2.478035-0.2983398l-0.5635986-0.0217285l-0.3389359-0.4509277
	c-4.4311066-5.8772202-0.227478-11.8486786-0.0464478-12.0998993l0.34198-0.4558182l0.5645828-0.0205078
	c0.8926392-0.0358849,1.7405472-0.1369629,2.5190506-0.2988281l10.6620331-2.1367264
	c1.5136719-0.302002,2.9652863-0.8115273,4.3432159-1.4719276l12.0847626,11.0298271l4.1665192-4.5664215l-11.0447235-10.0798759
	C151.1219025,52.7704735,153.6094055,47.5685501,153.6094055,42.1493378z M146.9606934,42.1493378
	c0,5.8542709-4.8432159,11.7624969-10.5764008,12.9019051l-10.6512833,2.1364861
	c-0.6606445,0.1245117-1.2800293,0.1848145-1.8958206,0.1848145c-1.8151932,0-3.4439163-0.5532265-4.709549-1.5986404
	c-0.8637695-0.7124062-1.5326614-1.6088943-1.9889603-2.6643181c-0.4578247-1.068119-0.6895142-2.2531815-0.6895142-3.5232048
	V24.2754879c0-2.6650505,1.0366821-5.1115932,2.9199905-6.8879681c1.8837357-1.7700262,4.3859406-2.6565046,7.0471497-2.4980564
	l10.1848602,0.6225615c5.6156158,0.3430185,10.3595276,5.3860064,10.3595276,11.0117617V42.1493378z M190.5631714,132.2514954
	c0.3687744,0.1318359,0.6912842,0.3254395,0.9671631,0.5815582l-1.2796783,1.7321777
	c-0.1732178-0.2116699-0.3914795-0.371582-0.6542969-0.480957c-0.2630615-0.1086426-0.567749-0.1635742-0.9141846-0.1635742
	c-0.6223145,0-1.1047363,0.171875-1.4477539,0.5148926c-0.3431396,0.3430176-0.5146484,0.8195801-0.5146484,1.4287109v6.322052
	h-1.9629059v-9.9880829h1.9629059v1.4377594c0.2768555-0.4414062,0.5964355-0.8193359,0.9909668-1.086441
	c0.4870605-0.3300781,1.026001-0.4953613,1.6162109-0.4953613
	C189.7822723,132.0542297,190.1943817,132.1201477,190.5631714,132.2514954z M192.817688,8.4734221h-18.2915802v104.2211227
	h18.2915802c12.1943817,0,18.0147247-10.5330048,18.0147247-17.8784943V26.0750542
	C210.8324127,18.5908947,205.1512299,8.4734221,192.817688,8.4734221z M204.3193207,94.8160477
	c0,5.4050522-4.2955475,11.7805634-11.5016327,11.7805634h-11.6404266V14.4329185h11.6404266
	c7.0671692,0,11.5016327,6.2365971,11.5016327,11.6421356V94.8160477z M91.3551331,136.3455048v1.6450348
	c0,0.7897949,0.206543,1.3989258,0.6205444,1.8288574c0.4134521,0.4294434,1.0020752,0.6447906,1.7652054,0.6447906
	c0.4172974,0,0.8147583-0.0932617,1.1933594-0.279068c0.3779984-0.1865234,0.7052078-0.4494629,0.9812088-0.7888184
	l1.4143143,1.3657379c-0.2503052,0.3334961-0.557991,0.6176758-0.9238968,0.8518066
	c-0.3654175,0.2338867-0.7775269,0.4121094-1.2362061,0.5339355c-0.4586868,0.1220703-0.9445267,0.1828613-1.4575882,0.1828613
	c-0.9108353,0-1.6884232-0.170166-2.3331375-0.5097656c-0.6446609-0.3400879-1.1369095-0.8339844-1.4768143-1.4821777
	c-0.3396606-0.6474762-0.5098877-1.430191-0.5098877-2.3481598v-1.6450348c0-0.9042969,0.1702271-1.6772461,0.5098877-2.3188477
	c0.3399048-0.6413574,0.8321533-1.1306152,1.4768143-1.4675446c0.6447144-0.3361816,1.4223022-0.5048828,2.3331375-0.5048828
	c0.5197754,0,1.008667,0.0625,1.4674149,0.1875c0.4581909,0.1247559,0.8706665,0.3061523,1.236084,0.5437164
	c0.3656006,0.2368164,0.6704178,0.5258789,0.9141922,0.8662109l-1.4143143,1.2700195
	c-0.2824097-0.3208008-0.6124878-0.5681152-0.9909744-0.7412109c-0.37854-0.1733398-0.7728271-0.2597656-1.1835938-0.2597656
	c-0.7570267,0-1.3438187,0.2119141-1.7605057,0.6352539C91.5635681,134.979538,91.3551331,135.5759735,91.3551331,136.3455048z
	 M115.0665283,132.1982727h1.9532547v9.9880829h-1.9532547v-1.3706055
	c-0.2067871,0.3896484-0.4810791,0.7365723-0.8660965,1.0146484c-0.461792,0.3334961-1.0291748,0.5002441-1.7026978,0.5002441
	c-1.1035233,0-1.9545975-0.354248-2.5545807-1.0629883c-0.5999146-0.7089844-0.8996582-1.7085114-0.8996582-2.9973297v-6.072052
	h1.9629593v6.072052c0,0.6987305,0.1781006,1.239502,0.5337524,1.6206055
	c0.3561401,0.3818359,0.8577271,0.5732574,1.5057449,0.5732574c0.6412964,0,1.1387939-0.1704254,1.4915848-0.510025
	c0.3525391-0.3405762,0.5289917-0.8244629,0.5289917-1.4533691V132.1982727z M104.0334015,140.3677521h0.9234085v1.8664551
	h-1.1541214c-0.7443848,0-1.3195877-0.2307129-1.7271805-0.692627c-0.4072266-0.4621582-0.611145-1.1130371-0.611145-1.9533844
	v-11.3926239h1.9630203v11.4121552c0,0.2438965,0.0527344,0.4313965,0.1585083,0.5629883
	C103.6917267,140.30159,103.8408966,140.3677521,104.0334015,140.3677521z M128.3560028,132.5300598
	c-0.5038986-0.3171387-1.1080322-0.4758301-1.8137817-0.4758301c-0.5967407,0-1.1383133,0.1586914-1.6259232,0.4758301
	c-0.3931885,0.2558746-0.7092285,0.6225739-0.9813309,1.0517731v-5.386261h-1.9628983v13.9907837h1.9628983v-1.3349609
	c0.2157059,0.4238281,0.4976883,0.78125,0.8852005,1.0314941c0.4614868,0.2983398,1.0037231,0.4477539,1.6260452,0.4477539
	c0.7243652,0,1.3465576-0.1586914,1.866394-0.4763184c0.5193024-0.3178711,0.9141998-0.7775879,1.1831207-1.3808594
	c0.2694092-0.6030426,0.4040527-1.327652,0.4040527-2.1743317v-2.1748199c0-0.8598633-0.1313477-1.5939941-0.3943481-2.2036133
	C129.2424927,133.3113251,128.859436,132.8474579,128.3560028,132.5300598z M127.9373093,138.2991333
	c0,0.7185059-0.1780472,1.2744141-0.5341873,1.6694336c-0.3556519,0.3940582-0.8577271,0.5918121-1.5055542,0.5918121
	c-0.4167557,0-0.7710037-0.0808105-1.0628738-0.2412109c-0.2922363-0.1601715-0.5151367-0.3908844-0.6690063-0.6923981
	c-0.1538086-0.3017578-0.2307205-0.6672363-0.2307205-1.0969238v-2.7234039c0-0.4165039,0.0769119-0.7744141,0.2307205-1.0722656
	c0.1538696-0.298584,0.37677-0.5244141,0.6690063-0.6787109c0.2918701-0.1540527,0.6461182-0.2307129,1.0628738-0.2307129
	c0.6478271,0,1.1499023,0.2019043,1.5055542,0.6057129c0.3561401,0.4042969,0.5341873,0.972168,0.5341873,1.7036133V138.2991333z
	 M141.7301483,131.8420715l6.4361877,3.9360504l-6.4361877,3.9448395v-2.2612305l2.9344025-1.683609l-2.9344025-1.6938477
	V131.8420715z"/>
</svg>
