<?xml version="1.0" encoding="utf-8"?>
<!-- Generator: Adobe Illustrator 26.4.1, SVG Export Plug-In . SVG Version: 6.00 Build 0)  -->
<svg version="1.1" id="Vrstva_1" xmlns="http://www.w3.org/2000/svg" xmlns:xlink="http://www.w3.org/1999/xlink" x="0px" y="0px"
	 viewBox="0 0 665.5893555 178.5217285" style="enable-background:new 0 0 665.5893555 178.5217285;" xml:space="preserve">
<path d="M652.1079102,0c0,0-200.8522949,0-211.2236328,0c-16.3342285,0-26.7727051,7.8649902-26.7727051,7.8649902
	c-3.9626465,2.6472168-7.6252441,6.0415039-10.5932617,10.326416l-2.125,3.0461426l-3.4580078-1.2937012
	c-14.5721436-5.4785156-27.8342896-2.7941895-36.3947144,0.4223633l-3.5429077,1.2958984l-2.083252-3.1296387
	C346.6771851,4.8554688,330.4187012,0,319.3023071,0h-110.713623v26.9831543h86.0647583
	c10.4584961,0,19.381897,3.8664551,25.1252441,10.8867188c5.739624,7.0129395,7.7816162,16.5319824,5.7358398,26.8032227
	l-8.6622925,43.3237305c-4.6582031,23.2983398-28.6190186,42.9807129-52.3225098,42.9807129h-55.94104v27.019043h55.9069214
	c36.9675903,0,71.560791-28.409668,78.7521973-64.6748047l8.6625977-43.3579102
	c0.6577148-3.1105957,1.0662231-6.4956055,1.2098389-10.0703125l0.0869751-2.2900391l1.8300171-1.3774414
	c23.8322144-18.0075684,48.0479736-0.9243164,49.0670166-0.1894531l1.848877,1.3903809l0.083252,2.2941895
	c0.1455078,3.6274414,0.553833,7.0732422,1.2119141,10.2370605l8.6640625,43.3293457
	c1.2255859,6.1574707,5.5688477,23.4243164,20.5893555,38.857666
	c15.6552734,16.0856934,36.1867676,25.8513184,58.1608887,25.8513184h63.3648682
	c37.2320557,0,69.3277588-30.2753906,71.5491943-67.4882812l1.6333008-26.7780762l30.4282227-30.489502
	c2.510498-2.5197754,3.9511719-5.9995117,3.9511719-9.5495605v-30.182373C665.5893555,6.0600586,659.5415039,0,652.1079102,0z
	 M605.2075195,67.4880371l-2.5239258,41.3894043c-1.3913574,22.8212891-21.8413086,42.1000977-44.6561279,42.1000977h-63.3648682
	c-23.7392578,0-47.697998-19.682373-52.3204346-42.9807129l-8.6623535-43.2858887
	c-0.5048828-2.6843262-0.7489014-5.2019043-0.7489014-7.7043457c0-7.3764648,2.2423096-13.9953613,6.4829102-19.1386719
	c2.8884277-3.5102539,6.5241699-6.2285156,10.8043213-8.083252c4.3311768-1.8601074,9.1368408-2.8015137,14.2886963-2.8015137
	h102.6386719c10.8081055,0,20.7277832,4.2131348,27.9326172,11.8662109
	C602.2563477,46.5043945,605.8504639,56.6733398,605.2075195,67.4880371z M0,14.729248l22.8186035,13.901123L0,42.5646973V34.576416
	l10.4031372-5.9460449L0,22.6481934V14.729248z M63.8692017,144.4179688c-1.784668-1.1228027-3.9281006-1.684082-6.4293823-1.684082
	c-2.1154175,0-4.0366211,0.5612793-5.7644043,1.684082c-1.3706665,0.8876953-2.5250244,2.0847168-3.4802246,3.5649414v-18.875
	h-6.9577637v49.4138184h6.9577637v-4.5566406c0.7612305,1.449707,1.7971191,2.6240234,3.1386108,3.4870605
	c1.6370239,1.0529785,3.5584106,1.578125,5.7644043,1.578125c2.5698242,0,4.7756958-0.5583496,6.6176147-1.6809082
	c1.84198-1.1228027,3.2406006-2.7480469,4.1956177-4.8764648c0.9550781-2.1311035,1.4320068-4.6901855,1.4320068-7.6799316
	v-7.6826172c0-3.0341797-0.4658203-5.6293945-1.3984985-7.7827148
	C67.012146,147.1767578,65.6539307,145.5375977,63.8692017,144.4179688z M62.385437,164.7929688
	c0,2.5366211-0.6315308,4.5012207-1.8934326,5.8959961c-1.2619019,1.3920898-3.0410156,2.0895996-5.3375854,2.0895996
	c-1.4780884,0-2.7341919-0.2834473-3.7689209-0.8503418c-1.0359497-0.5668945-1.8251953-1.3808594-2.3703003-2.4477539
	c-0.5466919-1.0644531-0.8200073-2.3564453-0.8200073-3.8735352v-9.6164551c0-1.4726562,0.2733154-2.7370605,0.8200073-3.7900391
	c0.545105-1.0529785,1.3343506-1.8530273,2.3703003-2.3977051c1.034729-0.541748,2.2908325-0.814209,3.7689209-0.814209
	c2.2965698,0,4.0756836,0.7141113,5.3375854,2.1420898c1.2619019,1.4255371,1.8934326,3.4316406,1.8934326,6.0129395V164.7929688z
	 M122.8116455,49.972168c2.1835938,1.2033691,4.8105469,1.8007812,7.8794556,1.8007812
	c3.0704346,0,5.6973877-0.5974121,7.8795166-1.8007812c2.1835938-1.2001953,3.8483887-2.9394531,4.9973755-5.2150879
	c1.147644-2.2783203,1.7220459-5.0236816,1.7220459-8.2412109v-5.8459473c0-3.1955566-0.5744019-5.932373-1.7220459-8.2080078
	c-1.1489868-2.2785645-2.8137817-4.0092773-4.9973755-5.201416c-2.1821289-1.189209-4.809082-1.7836914-7.8795166-1.7836914
	c-3.0689087,0-5.6958618,0.5944824-7.8794556,1.7836914c-2.182251,1.1921387-3.8485107,2.9228516-4.9961548,5.201416
	c-1.1488647,2.2756348-1.7232666,5.0124512-1.7232666,8.2080078v5.7431641c0,3.2397461,0.5744019,6.0100098,1.7232666,8.3078613
	C118.9631348,47.0214844,120.6293945,48.7719727,122.8116455,49.972168z M123.0513306,30.6699219
	c0-2.7426758,0.6651611-4.8598633,1.9953613-6.3547363c1.3302002-1.4975586,3.2113037-2.2451172,5.6444092-2.2451172
	s4.3154907,0.7475586,5.6456909,2.2451172c1.3303223,1.494873,1.9954224,3.6120605,1.9954224,6.3547363v5.8459473
	c0,2.7397461-0.6651001,4.8708496-1.9954224,6.3876953c-1.3302002,1.517334-3.2125854,2.2785645-5.6456909,2.2785645
	s-4.314209-0.7612305-5.6444092-2.2785645c-1.3302002-1.5168457-1.9953613-3.6479492-1.9953613-6.3876953V30.6699219z M0,78.7316895
	l22.8186035,13.901123L0,106.5668945v-7.9882812l10.4031372-5.9458008L0,86.6503906V78.7316895z M44.9880981,21.9008789h-3.7506714
	V15.987793h3.7506714v-4.7929688c0-3.1259766,0.72229-5.465332,2.1669312-7.0185547
	c1.4417725-1.550293,3.6671753-2.3256836,6.6677856-2.3256836h5.1173096v6.5908203h-4.9805908
	c-0.6610107,0-1.1600952,0.25-1.5003052,0.7502441c-0.3431396,0.4973145-0.5131226,1.1418457-0.5131226,1.9365234v4.8596191
	h6.9940186v5.9130859H51.946106v29.3635254h-6.9580078V21.9008789z M0,142.7338867l22.8186035,13.901123L0,170.5693359v-7.9882812
	l10.4031372-5.9460449L0,150.652832V142.7338867z M179.3793335,80.8405762
	c-1.7849121-1.1228027-3.9277954-1.6838379-6.4294434-1.6838379c-2.1153564,0-4.0368042,0.5610352-5.7644043,1.6838379
	c-1.3706665,0.8876953-2.5249634,2.0847168-3.4801636,3.5649414V65.5307617h-6.9578857v49.4135742h6.9578857v-4.5566406
	c0.7611694,1.449707,1.7971191,2.6240234,3.1386108,3.4870605c1.6369629,1.0529785,3.5584717,1.578125,5.7644043,1.578125
	c2.5697021,0,4.7755737-0.5585938,6.6174927-1.6809082c1.84198-1.1225586,3.2406006-2.7480469,4.1956787-4.8764648
	c0.9550781-2.1311035,1.4320068-4.6899414,1.4320068-7.6796875V93.532959c0-3.0341797-0.4658203-5.6293945-1.3986206-7.782959
	C182.5222168,83.5996094,181.1640015,81.9604492,179.3793335,80.8405762z M177.895813,101.2158203
	c0,2.5366211-0.6317749,4.5009766-1.8936768,5.8959961c-1.2619019,1.3918457-3.0411987,2.0893555-5.3376465,2.0893555
	c-1.4778442,0-2.734375-0.2834473-3.7688599-0.8500977c-1.0360107-0.5668945-1.8253174-1.3811035-2.3703003-2.447998
	c-0.5466309-1.064209-0.8200073-2.3562012-0.8200073-3.873291v-9.6166992c0-1.4726562,0.2733765-2.7368164,0.8200073-3.7900391
	c0.5449829-1.0529785,1.3342896-1.8530273,2.3703003-2.3977051c1.0344849-0.541748,2.2910156-0.814209,3.7688599-0.814209
	c2.2964478,0,4.0757446,0.7143555,5.3376465,2.1420898c1.2619019,1.4255371,1.8936768,3.4316406,1.8936768,6.0131836V101.2158203z
	 M48.1967163,94.3164062v5.8100586c0,2.7866211,0.7332764,4.9401855,2.1987915,6.4575195
	c1.4669189,1.5170898,3.5527954,2.2780762,6.2593384,2.2780762c1.4780884,0,2.8876953-0.3303223,4.2304688-0.986084
	c1.3414307-0.6586914,2.5012817-1.5866699,3.4790039-2.7871094l5.0140991,4.826416
	c-0.8869019,1.1782227-1.9785767,2.1811523-3.2739868,3.0065918c-1.296936,0.8276367-2.7579956,1.4558105-4.3837891,1.8864746
	c-1.6260376,0.4306641-3.3480225,0.6445312-5.1676025,0.6445312c-3.2294312,0-5.9860229-0.597168-8.2713013-1.800293
	c-2.2855225-1.2004395-4.03125-2.9453125-5.2358398-5.2321777c-1.2061768-2.2895508-1.8084717-5.0541992-1.8084717-8.2939453
	v-5.8100586c0-3.1953125,0.6022949-5.9267578,1.8084717-8.190918c1.2045898-2.2675781,2.9503174-3.9931641,5.2358398-5.1850586
	c2.2852783-1.189209,5.0418701-1.7836914,8.2713013-1.7836914c1.84198,0,3.5750732,0.222168,5.2022705,0.6640625
	c1.6243286,0.4418945,3.0859375,1.0810547,4.3826294,1.9199219c1.2965698,0.8393555,2.3757935,1.8588867,3.2404785,3.059082
	l-5.0140991,4.4848633c-1.0012207-1.1311035-2.1724854-2.003418-3.513916-2.6176758
	C59.5089111,86.0559082,58.1105957,85.75,56.6548462,85.75c-2.6827393,0-4.7632446,0.7475586-6.241333,2.2453613
	C48.9342041,89.4902344,48.1967163,91.5961914,48.1967163,94.3164062z M132.2623901,110.2529297
	c-0.7295532,1.328125-1.7425537,2.4794922-3.0703735,3.4328613c-1.6367798,1.1809082-3.6489868,1.7670898-6.0372925,1.7670898
	c-3.9113159,0-6.9299927-1.2502441-9.0565796-3.7536621c-2.1262207-2.5036621-3.1887207-6.0322266-3.1887207-10.5864258V79.6679688
	h6.9577637v21.4448242c0,2.4702148,0.6315308,4.3789062,1.8935547,5.7268066
	c1.2619019,1.3474121,3.0410767,2.0224609,5.3389893,2.0224609c2.272583,0,4.0352783-0.6000977,5.2860107-1.8029785
	c1.2505493-1.2004395,1.8766479-2.9091797,1.8766479-5.1323242V79.6679688h6.9246216v35.2763672h-6.9246216V110.2529297z
	 M182.2921143,20.4389648c-0.9577026-1.4174805-2.1171265-2.5698242-3.4956055-3.4311523
	c-1.7401733-1.0893555-3.6560059-1.6311035-5.7476196-1.6311035c-2.5027466,0-4.6445923,0.5583496-6.4306641,1.6809082
	c-1.78479,1.1225586-3.1428833,2.7592773-4.0758057,4.9125977c-0.9328003,2.1503906-1.3986206,4.7456055-1.3986206,7.7824707
	v7.782959c0,3.0119629,0.4783325,5.5959473,1.4335327,7.746582c0.9550781,2.1535645,2.3466797,3.7900391,4.1773682,4.9125977
	c1.8309326,1.1196289,4.0422974,1.6811523,6.6343994,1.6811523c2.3425903,0,4.3157349-0.5893555,5.9191284-1.767334
	c1.2897949-0.9484863,2.2750854-2.0898438,2.9838867-3.4055176v4.5612793H189.25V1.8505859h-6.9578857V20.4389648z
	 M182.2921143,38.2832031c0,1.5168457-0.2731934,2.8200684-0.8184814,3.9064941
	c-0.5452271,1.0891113-1.3356934,1.920166-2.3704224,2.4980469c-1.0344849,0.5778809-2.2908936,0.8666992-3.7689209,0.8666992
	c-2.2978516,0-4.0770874-0.6972656-5.3389893-2.0893555c-1.2619019-1.3947754-1.8922119-3.3703613-1.8922119-5.9294434v-7.6826172
	c0-2.581543,0.6303101-4.5874023,1.8922119-6.015625c1.2619019-1.4255371,3.0411377-2.1396484,5.3389893-2.1396484
	c1.4780273,0,2.734436,0.277832,3.7689209,0.8310547c1.034729,0.5556641,1.8251953,1.3666992,2.3704224,2.4311523
	c0.5452881,1.0639648,0.8184814,2.3452148,0.8184814,3.8398438V38.2832031z M150.9721069,143.4313965
	c1.3079224,0.4641113,2.4498901,1.1503906,3.4285278,2.0561523l-4.5371094,6.1184082
	c-0.6134033-0.7475586-1.3873901-1.3144531-2.3187866-1.7004395c-0.9328003-0.3835449-2.012146-0.5778809-3.2404175-0.5778809
	c-2.2059326,0-3.9182129,0.6054688-5.1340942,1.8198242c-1.2158813,1.2114258-1.8251953,2.892334-1.8251953,5.0458984v22.3283691
	h-6.9578247v-35.2766113h6.9578247v4.9360352c0.9724731-1.5263672,2.1376953-2.7670898,3.5137939-3.6967773
	c1.727478-1.166748,3.6378784-1.7504883,5.7307739-1.7504883
	C148.2042236,142.7338867,149.6642456,142.9672852,150.9721069,143.4313965z M93.5203247,49.972168
	c2.1806641-1.2001953,3.8483887-2.9394531,4.9945679-5.2150879c1.1489258-2.2783203,1.7234497-5.0236816,1.7234497-8.2412109
	v-5.8459473c0-3.1955566-0.5745239-5.932373-1.7234497-8.2080078c-1.1461792-2.2785645-2.8139038-4.0092773-4.9945679-5.201416
	c-2.1835938-1.189209-4.8106079-1.7836914-7.8809814-1.7836914c-3.0703125,0-5.6973267,0.5944824-7.8782349,1.7836914
	c-2.1834106,1.1921387-3.8510742,2.9228516-4.9973145,5.201416c-1.1489868,2.2756348-1.7233887,5.0124512-1.7233887,8.2080078
	v5.7431641c0,3.2397461,0.5744019,6.0100098,1.7233887,8.3078613c1.1462402,2.3005371,2.8139038,4.0510254,4.9973145,5.2512207
	c2.1809082,1.2033691,4.8079224,1.8007812,7.8782349,1.8007812C88.7097168,51.7729492,91.336731,51.1755371,93.5203247,49.972168z
	 M79.9949951,42.9035645c-1.3302002-1.5168457-1.9967651-3.6479492-1.9967651-6.3876953v-5.8459473
	c0-2.7426758,0.6665649-4.8598633,1.9967651-6.3547363c1.3301392-1.4975586,3.2098389-2.2451172,5.6443481-2.2451172
	c2.4345703,0,4.3140869,0.7475586,5.6443481,2.2451172c1.3302002,1.494873,1.9967041,3.6120605,1.9967041,6.3547363v5.8459473
	c0,2.7397461-0.6665039,4.8708496-1.9967041,6.3876953c-1.3302612,1.517334-3.2097778,2.2785645-5.6443481,2.2785645
	C83.204834,45.1821289,81.3251343,44.4208984,79.9949951,42.9035645z M106.4153442,144.2817383
	c-2.0930176-1.0307617-4.6043091-1.5478516-7.5379028-1.5478516c-2.6843262,0-5.1231079,0.4472656-7.317749,1.3422852
	c-2.1947021,0.8972168-3.9611816,2.1477051-5.3027954,3.7563477l5.0812988,3.4677734
	c1.0455322-0.7697754,2.2460938-1.3725586,3.5988159-1.8032227c1.352417-0.4279785,2.7341919-0.6447754,4.1453857-0.6447754
	c2.2728271,0,4.0297241,0.6391602,5.2692261,1.9199219c1.239624,1.2810059,1.8587036,3.0759277,1.8587036,5.3879395v1.4946289
	h-9.7548218c-4.0032959,0-6.992981,0.8725586-8.9714966,2.6174316c-1.9785767,1.744873-2.9671021,4.3623047-2.9671021,7.8493652
	c0,3.6704102,1.0792236,6.4074707,3.2404175,8.2080078c2.15979,1.8005371,5.4226074,2.7006836,9.7896729,2.7006836
	c1.4781494,0,2.8082275-0.152832,3.9909058-0.458252c1.1824341-0.3059082,2.2225952-0.7644043,3.1203003-1.3757324
	c0.5848389-0.3981934,1.0874023-0.8955078,1.552124-1.4384766v2.763916h6.6176147V155.854248
	c0-2.7646484-0.545105-5.1262207-1.6370239-7.0881348C110.0991211,146.8071289,108.506897,145.3125,106.4153442,144.2817383z
	 M106.2103271,169.888916c0,1.2028809-0.6539307,2.0866699-1.9605103,2.6506348
	c-1.3078003,0.5668945-3.2919922,0.8500977-5.9525146,0.8500977c-2.4331055,0-4.2470703-0.4304199-5.4406738-1.291748
	c-1.1934814-0.8615723-1.7902832-2.1867676-1.7902832-3.9763184c0-1.6533203,0.4487915-2.8813477,1.3468628-3.6870117
	c0.8980103-0.8032227,2.2559814-1.2060547,4.0756226-1.2060547h9.7214966V169.888916z M86.2040405,112.6660156
	c-1.4431152-1.6308594-2.1655273-3.9287109-2.1655273-6.8962402V65.5307617h6.9580078v40.3056641
	c0,0.8613281,0.1881714,1.5224609,0.5631714,1.9892578c0.3752441,0.4641113,0.9037476,0.6948242,1.586853,0.6948242h3.2739868
	v6.5935059h-4.093811C89.6885376,115.1140137,87.6486206,114.2998047,86.2040405,112.6660156z"/>
</svg>
