<?xml version="1.0" encoding="utf-8"?>
<!-- Generator: Adobe Illustrator 26.4.1, SVG Export Plug-In . SVG Version: 6.00 Build 0)  -->
<svg version="1.1" id="Vrstva_1" xmlns="http://www.w3.org/2000/svg" xmlns:xlink="http://www.w3.org/1999/xlink" x="0px" y="0px"
	 viewBox="0 0 384.3928223 86.1853027" style="enable-background:new 0 0 384.3928223 86.1853027;" xml:space="preserve">
<g>
	<path d="M1.5415039,77.3869629C0.6901855,77.3869629,0,78.0766602,0,78.9277344
		c0,0.8503418,0.6901855,1.5402832,1.5415039,1.5402832s1.5415039-0.6899414,1.5415039-1.5402832
		C3.0830078,78.0766602,2.3928223,77.3869629,1.5415039,77.3869629z"/>
	<path d="M1.5415039,83.1582031C0.6901855,83.1582031,0,83.8481445,0,84.6989746s0.6901855,1.5402832,1.5415039,1.5402832
		s1.5415039-0.6894531,1.5415039-1.5402832S2.3928223,83.1582031,1.5415039,83.1582031z"/>
	<circle cx="1.5415039" cy="73.1560059" r="1.5410156"/>
	<circle cx="1.5415039" cy="67.3845215" r="1.5411377"/>
	<circle cx="1.5415039" cy="61.6130371" r="1.5410156"/>
	<path d="M1.5415039,54.3012695C0.6901855,54.3012695,0,54.9909668,0,55.8417969
		c0,0.8505859,0.6901855,1.5402832,1.5415039,1.5402832s1.5415039-0.6896973,1.5415039-1.5402832
		C3.0830078,54.9909668,2.3928223,54.3012695,1.5415039,54.3012695z"/>
	<circle cx="1.5415039" cy="44.2988281" r="1.5410156"/>
	<path d="M1.5415039,48.5297852C0.6901855,48.5297852,0,49.2192383,0,50.0700684s0.6901855,1.5407715,1.5415039,1.5407715
		s1.5415039-0.6899414,1.5415039-1.5407715S2.3928223,48.5297852,1.5415039,48.5297852z"/>
	<path d="M1.5415039,36.9865723C0.6901855,36.9865723,0,37.6765137,0,38.5273438s0.6901855,1.5402832,1.5415039,1.5402832
		s1.5415039-0.6894531,1.5415039-1.5402832S2.3928223,36.9865723,1.5415039,36.9865723z"/>
	<circle cx="1.5415039" cy="32.7558594" r="1.5410156"/>
	<circle cx="1.5415039" cy="26.984375" r="1.5410156"/>
	<path d="M1.5415039,19.6726074C0.6901855,19.6726074,0,20.3620605,0,21.2128906s0.6901855,1.5405273,1.5415039,1.5405273
		s1.5415039-0.6896973,1.5415039-1.5405273S2.3928223,19.6726074,1.5415039,19.6726074z"/>
	<path d="M1.5415039,13.9008789C0.6901855,13.9008789,0,14.5905762,0,15.4414062
		c0,0.8510742,0.6901855,1.5407715,1.5415039,1.5407715s1.5415039-0.6896973,1.5415039-1.5407715
		C3.0830078,14.5905762,2.3928223,13.9008789,1.5415039,13.9008789z"/>
	<path d="M47.803772,77.3869629c-0.8512573,0-1.5414429,0.6896973-1.5414429,1.5407715
		c0,0.8503418,0.6901855,1.5402832,1.5414429,1.5402832c0.8513184,0,1.5415039-0.6899414,1.5415039-1.5402832
		C49.3452759,78.0766602,48.6550903,77.3869629,47.803772,77.3869629z"/>
	<path d="M47.803772,83.1582031c-0.8512573,0-1.5414429,0.6899414-1.5414429,1.5407715s0.6901855,1.5402832,1.5414429,1.5402832
		c0.8513184,0,1.5415039-0.6894531,1.5415039-1.5402832S48.6550903,83.1582031,47.803772,83.1582031z"/>
	<path d="M47.803772,71.6154785c-0.8512573,0-1.5414429,0.6896973-1.5414429,1.5405273s0.6901855,1.5405273,1.5414429,1.5405273
		c0.8513184,0,1.5415039-0.6896973,1.5415039-1.5405273S48.6550903,71.6154785,47.803772,71.6154785z"/>
	<path d="M47.803772,65.84375c-0.8512573,0-1.5414429,0.6899414-1.5414429,1.5407715s0.6901855,1.5407715,1.5414429,1.5407715
		c0.8513184,0,1.5415039-0.6899414,1.5415039-1.5407715S48.6550903,65.84375,47.803772,65.84375z"/>
	<path d="M47.803772,60.0725098c-0.8512573,0-1.5414429,0.6896973-1.5414429,1.5405273
		c0,0.8510742,0.6901855,1.5405273,1.5414429,1.5405273c0.8513184,0,1.5415039-0.6894531,1.5415039-1.5405273
		C49.3452759,60.762207,48.6550903,60.0725098,47.803772,60.0725098z"/>
	<path d="M47.803772,54.3012695c-0.8512573,0-1.5414429,0.6896973-1.5414429,1.5405273
		c0,0.8505859,0.6901855,1.5402832,1.5414429,1.5402832c0.8513184,0,1.5415039-0.6896973,1.5415039-1.5402832
		C49.3452759,54.9909668,48.6550903,54.3012695,47.803772,54.3012695z"/>
	<path d="M47.803772,42.7583008c-0.8512573,0-1.5414429,0.6894531-1.5414429,1.5405273
		c0,0.8505859,0.6901855,1.5405273,1.5414429,1.5405273c0.8513184,0,1.5415039-0.6899414,1.5415039-1.5405273
		C49.3452759,43.4477539,48.6550903,42.7583008,47.803772,42.7583008z"/>
	<path d="M47.803772,48.5297852c-0.8512573,0-1.5414429,0.6894531-1.5414429,1.5402832s0.6901855,1.5407715,1.5414429,1.5407715
		c0.8513184,0,1.5415039-0.6899414,1.5415039-1.5407715S48.6550903,48.5297852,47.803772,48.5297852z"/>
	<path d="M47.803772,36.9865723c-0.8512573,0-1.5414429,0.6899414-1.5414429,1.5407715s0.6901855,1.5402832,1.5414429,1.5402832
		c0.8513184,0,1.5415039-0.6894531,1.5415039-1.5402832S48.6550903,36.9865723,47.803772,36.9865723z"/>
	<path d="M47.803772,31.215332c-0.8512573,0-1.5414429,0.6899414-1.5414429,1.5405273
		c0,0.8510742,0.6901855,1.5405273,1.5414429,1.5405273c0.8513184,0,1.5415039-0.6894531,1.5415039-1.5405273
		C49.3452759,31.9052734,48.6550903,31.215332,47.803772,31.215332z"/>
	<path d="M47.803772,25.4438477c-0.8512573,0-1.5414429,0.6894531-1.5414429,1.5405273
		c0,0.8508301,0.6901855,1.5405273,1.5414429,1.5405273c0.8513184,0,1.5415039-0.6896973,1.5415039-1.5405273
		C49.3452759,26.1333008,48.6550903,25.4438477,47.803772,25.4438477z"/>
	<path d="M47.803772,19.6726074c-0.8512573,0-1.5414429,0.6894531-1.5414429,1.5402832s0.6901855,1.5405273,1.5414429,1.5405273
		c0.8513184,0,1.5415039-0.6896973,1.5415039-1.5405273S48.6550903,19.6726074,47.803772,19.6726074z"/>
	<path d="M47.803772,13.9008789c-0.8512573,0-1.5414429,0.6896973-1.5414429,1.5405273
		c0,0.8510742,0.6901855,1.5407715,1.5414429,1.5407715c0.8513184,0,1.5415039-0.6896973,1.5415039-1.5407715
		C49.3452759,14.5905762,48.6550903,13.9008789,47.803772,13.9008789z"/>
	<path d="M141.5518188,77.3869629c-0.8514404,0-1.5415039,0.6896973-1.5415039,1.5407715
		c0,0.8503418,0.6900635,1.5402832,1.5415039,1.5402832c0.8513794,0,1.5415649-0.6899414,1.5415649-1.5402832
		C143.0933838,78.0766602,142.4031982,77.3869629,141.5518188,77.3869629z"/>
	<path d="M141.5518188,83.1582031c-0.8514404,0-1.5415039,0.6899414-1.5415039,1.5407715s0.6900635,1.5402832,1.5415039,1.5402832
		c0.8513794,0,1.5415649-0.6894531,1.5415649-1.5402832S142.4031982,83.1582031,141.5518188,83.1582031z"/>
	<path d="M141.5518188,71.6154785c-0.8514404,0-1.5415039,0.6896973-1.5415039,1.5405273s0.6900635,1.5405273,1.5415039,1.5405273
		c0.8513794,0,1.5415649-0.6896973,1.5415649-1.5405273S142.4031982,71.6154785,141.5518188,71.6154785z"/>
	<path d="M141.5518188,65.84375c-0.8514404,0-1.5415039,0.6899414-1.5415039,1.5407715s0.6900635,1.5407715,1.5415039,1.5407715
		c0.8513794,0,1.5415649-0.6899414,1.5415649-1.5407715S142.4031982,65.84375,141.5518188,65.84375z"/>
	<path d="M141.5518188,60.0725098c-0.8514404,0-1.5415039,0.6896973-1.5415039,1.5405273
		c0,0.8510742,0.6900635,1.5405273,1.5415039,1.5405273c0.8513794,0,1.5415649-0.6894531,1.5415649-1.5405273
		C143.0933838,60.762207,142.4031982,60.0725098,141.5518188,60.0725098z"/>
	<path d="M141.5518188,54.3012695c-0.8514404,0-1.5415039,0.6896973-1.5415039,1.5405273
		c0,0.8505859,0.6900635,1.5402832,1.5415039,1.5402832c0.8513794,0,1.5415649-0.6896973,1.5415649-1.5402832
		C143.0933838,54.9909668,142.4031982,54.3012695,141.5518188,54.3012695z"/>
	<path d="M141.5518188,42.7583008c-0.8514404,0-1.5415039,0.6894531-1.5415039,1.5405273
		c0,0.8505859,0.6900635,1.5405273,1.5415039,1.5405273c0.8513794,0,1.5415649-0.6899414,1.5415649-1.5405273
		C143.0933838,43.4477539,142.4031982,42.7583008,141.5518188,42.7583008z"/>
	<path d="M141.5518188,48.5297852c-0.8514404,0-1.5415039,0.6894531-1.5415039,1.5402832s0.6900635,1.5407715,1.5415039,1.5407715
		c0.8513794,0,1.5415649-0.6899414,1.5415649-1.5407715S142.4031982,48.5297852,141.5518188,48.5297852z"/>
	<path d="M141.5518188,36.9865723c-0.8514404,0-1.5415039,0.6899414-1.5415039,1.5407715s0.6900635,1.5402832,1.5415039,1.5402832
		c0.8513794,0,1.5415649-0.6894531,1.5415649-1.5402832S142.4031982,36.9865723,141.5518188,36.9865723z"/>
	<path d="M141.5518188,31.215332c-0.8514404,0-1.5415039,0.6899414-1.5415039,1.5405273
		c0,0.8510742,0.6900635,1.5405273,1.5415039,1.5405273c0.8513794,0,1.5415649-0.6894531,1.5415649-1.5405273
		C143.0933838,31.9052734,142.4031982,31.215332,141.5518188,31.215332z"/>
	<path d="M141.5518188,25.4438477c-0.8514404,0-1.5415039,0.6894531-1.5415039,1.5405273
		c0,0.8508301,0.6900635,1.5405273,1.5415039,1.5405273c0.8513794,0,1.5415649-0.6896973,1.5415649-1.5405273
		C143.0933838,26.1333008,142.4031982,25.4438477,141.5518188,25.4438477z"/>
	<path d="M141.5518188,19.6726074c-0.8514404,0-1.5415039,0.6894531-1.5415039,1.5402832s0.6900635,1.5405273,1.5415039,1.5405273
		c0.8513794,0,1.5415649-0.6896973,1.5415649-1.5405273S142.4031982,19.6726074,141.5518188,19.6726074z"/>
	<path d="M141.5518188,13.9008789c-0.8514404,0-1.5415039,0.6896973-1.5415039,1.5405273
		c0,0.8510742,0.6900635,1.5407715,1.5415039,1.5407715c0.8513794,0,1.5415649-0.6896973,1.5415649-1.5407715
		C143.0933838,14.5905762,142.4031982,13.9008789,141.5518188,13.9008789z"/>
	<path d="M161.2265015,77.0622559c-0.8513184,0-1.5415039,0.6894531-1.5415039,1.5402832s0.6901855,1.5407715,1.5415039,1.5407715
		s1.5415039-0.6899414,1.5415039-1.5407715S162.0778198,77.0622559,161.2265015,77.0622559z"/>
	<path d="M157.8552856,81.1013184c-0.8513184,0-1.5415039,0.6894531-1.5415039,1.5402832s0.6901855,1.5407715,1.5415039,1.5407715
		s1.5415039-0.6899414,1.5415039-1.5407715S158.706604,81.1013184,157.8552856,81.1013184z"/>
	<circle cx="162.2247925" cy="73.1560059" r="1.5410156"/>
	<circle cx="162.2247925" cy="67.3845215" r="1.5411377"/>
	<circle cx="162.2247925" cy="61.6130371" r="1.5410156"/>
	<path d="M162.2247925,54.3012695c-0.8513184,0-1.5415039,0.6896973-1.5415039,1.5405273
		c0,0.8505859,0.6901855,1.5402832,1.5415039,1.5402832s1.5415039-0.6896973,1.5415039-1.5402832
		C163.7662964,54.9909668,163.0761108,54.3012695,162.2247925,54.3012695z"/>
	<circle cx="162.2247925" cy="44.2988281" r="1.5410156"/>
	<path d="M162.2247925,48.5297852c-0.8513184,0-1.5415039,0.6894531-1.5415039,1.5402832s0.6901855,1.5407715,1.5415039,1.5407715
		s1.5415039-0.6899414,1.5415039-1.5407715S163.0761108,48.5297852,162.2247925,48.5297852z"/>
	<path d="M162.2247925,36.9865723c-0.8513184,0-1.5415039,0.6899414-1.5415039,1.5407715s0.6901855,1.5402832,1.5415039,1.5402832
		s1.5415039-0.6894531,1.5415039-1.5402832S163.0761108,36.9865723,162.2247925,36.9865723z"/>
	<circle cx="162.2247925" cy="32.7558594" r="1.5410156"/>
	<circle cx="162.2247925" cy="26.984375" r="1.5410156"/>
	<path d="M187.5255127,77.3869629c-0.8514404,0-1.5415039,0.6896973-1.5415039,1.5407715
		c0,0.8503418,0.6900635,1.5402832,1.5415039,1.5402832c0.8512573,0,1.5415039-0.6899414,1.5415039-1.5402832
		C189.0670166,78.0766602,188.37677,77.3869629,187.5255127,77.3869629z"/>
	<path d="M187.5255127,83.1582031c-0.8514404,0-1.5415039,0.6899414-1.5415039,1.5407715s0.6900635,1.5402832,1.5415039,1.5402832
		c0.8512573,0,1.5415039-0.6894531,1.5415039-1.5402832S188.37677,83.1582031,187.5255127,83.1582031z"/>
	<circle cx="187.5255127" cy="73.1560059" r="1.5410156"/>
	<circle cx="187.5255127" cy="67.3845215" r="1.5411377"/>
	<circle cx="187.5255127" cy="61.6130371" r="1.5410156"/>
	<path d="M187.5255127,54.3012695c-0.8514404,0-1.5415039,0.6896973-1.5415039,1.5405273
		c0,0.8505859,0.6900635,1.5402832,1.5415039,1.5402832c0.8512573,0,1.5415039-0.6896973,1.5415039-1.5402832
		C189.0670166,54.9909668,188.37677,54.3012695,187.5255127,54.3012695z"/>
	<circle cx="187.5255127" cy="44.2988281" r="1.5410156"/>
	<path d="M187.5255127,48.5297852c-0.8514404,0-1.5415039,0.6894531-1.5415039,1.5402832s0.6900635,1.5407715,1.5415039,1.5407715
		c0.8512573,0,1.5415039-0.6899414,1.5415039-1.5407715S188.37677,48.5297852,187.5255127,48.5297852z"/>
	<path d="M187.5255127,36.9865723c-0.8514404,0-1.5415039,0.6899414-1.5415039,1.5407715s0.6900635,1.5402832,1.5415039,1.5402832
		c0.8512573,0,1.5415039-0.6894531,1.5415039-1.5402832S188.37677,36.9865723,187.5255127,36.9865723z"/>
	<circle cx="187.5255127" cy="32.7558594" r="1.5410156"/>
	<circle cx="187.5255127" cy="26.984375" r="1.5410156"/>
	<path d="M187.5255127,19.6726074c-0.8514404,0-1.5415039,0.6894531-1.5415039,1.5402832s0.6900635,1.5405273,1.5415039,1.5405273
		c0.8512573,0,1.5415039-0.6896973,1.5415039-1.5405273S188.37677,19.6726074,187.5255127,19.6726074z"/>
	<path d="M187.5255127,13.9008789c-0.8514404,0-1.5415039,0.6896973-1.5415039,1.5405273
		c0,0.8510742,0.6900635,1.5407715,1.5415039,1.5407715c0.8512573,0,1.5415039-0.6896973,1.5415039-1.5407715
		C189.0670166,14.5905762,188.37677,13.9008789,187.5255127,13.9008789z"/>
	<path d="M90.6536255,77.3869629c-0.8515015,0-1.541626,0.6896973-1.541626,1.5407715
		c0,0.8503418,0.6901245,1.5402832,1.541626,1.5402832c0.8512573,0,1.5415039-0.6899414,1.5415039-1.5402832
		C92.1951294,78.0766602,91.5048828,77.3869629,90.6536255,77.3869629z"/>
	<path d="M90.6536255,83.1582031c-0.8515015,0-1.541626,0.6899414-1.541626,1.5407715s0.6901245,1.5402832,1.541626,1.5402832
		c0.8512573,0,1.5415039-0.6894531,1.5415039-1.5402832S91.5048828,83.1582031,90.6536255,83.1582031z"/>
	<path d="M116.3928223,83.1582031c-0.8514404,0-1.5415039,0.6899414-1.5415039,1.5407715s0.6900635,1.5402832,1.5415039,1.5402832
		c0.8512573,0,1.5413818-0.6894531,1.5413818-1.5402832S117.2440796,83.1582031,116.3928223,83.1582031z"/>
	<path d="M90.6536255,71.6154785c-0.8515015,0-1.541626,0.6896973-1.541626,1.5405273s0.6901245,1.5405273,1.541626,1.5405273
		c0.8512573,0,1.5415039-0.6896973,1.5415039-1.5405273S91.5048828,71.6154785,90.6536255,71.6154785z"/>
	<path d="M90.6536255,65.84375c-0.8515015,0-1.541626,0.6899414-1.541626,1.5407715s0.6901245,1.5407715,1.541626,1.5407715
		c0.8512573,0,1.5415039-0.6899414,1.5415039-1.5407715S91.5048828,65.84375,90.6536255,65.84375z"/>
	<path d="M93.5327759,61.0935059c-0.8513794,0-1.5415039,0.6896973-1.5415039,1.5407715
		c0,0.8505859,0.6901245,1.5405273,1.5415039,1.5405273c0.8514404,0,1.5415039-0.6899414,1.5415039-1.5405273
		C95.0742798,61.7832031,94.3842163,61.0935059,93.5327759,61.0935059z"/>
	<path d="M93.5327759,54.9973145c-0.8513794,0-1.5415039,0.6896973-1.5415039,1.5402832
		c0,0.8510742,0.6901245,1.5407715,1.5415039,1.5407715c0.8514404,0,1.5415039-0.6896973,1.5415039-1.5407715
		C95.0742798,55.6870117,94.3842163,54.9973145,93.5327759,54.9973145z"/>
	<path d="M90.6536255,45.8393555c0.8512573,0,1.5415039-0.6899414,1.5415039-1.5405273
		c0-0.8510742-0.6902466-1.5405273-1.5415039-1.5405273c-0.8515015,0-1.541626,0.6894531-1.541626,1.5405273
		C89.1119995,45.1494141,89.802124,45.8393555,90.6536255,45.8393555z"/>
	<circle cx="92.8126831" cy="49.8381348" r="1.5411377"/>
	<path d="M90.6536255,40.067627c0.8512573,0,1.5415039-0.6894531,1.5415039-1.5402832s-0.6902466-1.5407715-1.5415039-1.5407715
		c-0.8515015,0-1.541626,0.6899414-1.541626,1.5407715S89.802124,40.067627,90.6536255,40.067627z"/>
	<path d="M90.6536255,34.2963867c0.8512573,0,1.5415039-0.6894531,1.5415039-1.5405273
		c0-0.8505859-0.6902466-1.5405273-1.5415039-1.5405273c-0.8515015,0-1.541626,0.6899414-1.541626,1.5405273
		C89.1119995,33.6069336,89.802124,34.2963867,90.6536255,34.2963867z"/>
	<path d="M90.6536255,28.5249023c0.8512573,0,1.5415039-0.6896973,1.5415039-1.5405273
		c0-0.8510742-0.6902466-1.5405273-1.5415039-1.5405273c-0.8515015,0-1.541626,0.6894531-1.541626,1.5405273
		C89.1119995,27.8352051,89.802124,28.5249023,90.6536255,28.5249023z"/>
	<path d="M90.6536255,22.753418c0.8512573,0,1.5415039-0.6896973,1.5415039-1.5405273s-0.6902466-1.5402832-1.5415039-1.5402832
		c-0.8515015,0-1.541626,0.6894531-1.541626,1.5402832S89.802124,22.753418,90.6536255,22.753418z"/>
	<path d="M112.7130127,43.6357422c0,0.8508301,0.6900635,1.5407715,1.5415039,1.5407715
		c0.8513794,0,1.5415039-0.6899414,1.5415039-1.5407715s-0.6901245-1.5402832-1.5415039-1.5402832
		C113.4030762,42.095459,112.7130127,42.7849121,112.7130127,43.6357422z"/>
	<path d="M116.3928223,36.8081055c-0.8514404,0-1.5415039,0.6899414-1.5415039,1.5405273s0.6900635,1.5405273,1.5415039,1.5405273
		c0.8512573,0,1.5413818-0.6899414,1.5413818-1.5405273S117.2440796,36.8081055,116.3928223,36.8081055z"/>
	<path d="M116.3928223,31.0961914c-0.8514404,0-1.5415039,0.6896973-1.5415039,1.5405273
		c0,0.8505859,0.6900635,1.5405273,1.5415039,1.5405273c0.8512573,0,1.5413818-0.6899414,1.5413818-1.5405273
		C117.9342041,31.7858887,117.2440796,31.0961914,116.3928223,31.0961914z"/>
	<path d="M116.3928223,25.6818848c-0.8514404,0-1.5415039,0.6896973-1.5415039,1.5407715
		c0,0.8508301,0.6900635,1.5405273,1.5415039,1.5405273c0.8512573,0,1.5413818-0.6896973,1.5413818-1.5405273
		C117.9342041,26.371582,117.2440796,25.6818848,116.3928223,25.6818848z"/>
	<path d="M115.276123,23.4558105c0.8513794,0,1.5415039-0.6896973,1.5415039-1.5407715
		c0-0.8505859-0.6901245-1.5402832-1.5415039-1.5402832c-0.8513184,0-1.5415039,0.6896973-1.5415039,1.5402832
		C113.7346191,22.7661133,114.4248047,23.4558105,115.276123,23.4558105z"/>
	<path d="M90.6536255,16.9821777c0.8512573,0,1.5415039-0.6896973,1.5415039-1.5407715
		c0-0.8508301-0.6902466-1.5405273-1.5415039-1.5405273c-0.8515015,0-1.541626,0.6896973-1.541626,1.5405273
		C89.1119995,16.2924805,89.802124,16.9821777,90.6536255,16.9821777z"/>
	<path d="M65.1290894,13.9008789c-0.8513184,0-1.5415039,0.6896973-1.5415039,1.5405273
		c0,0.8510742,0.6901855,1.5407715,1.5415039,1.5407715c0.8514404,0,1.5415039-0.6896973,1.5415039-1.5407715
		C66.6705933,14.5905762,65.9805298,13.9008789,65.1290894,13.9008789z"/>
	<path d="M59.3540039,13.9008789c-0.8513794,0-1.541626,0.6896973-1.541626,1.5405273
		c0,0.8510742,0.6902466,1.5407715,1.541626,1.5407715s1.5415039-0.6896973,1.5415039-1.5407715
		C60.8955078,14.5905762,60.2053833,13.9008789,59.3540039,13.9008789z"/>
	<path d="M53.5789185,13.9008789c-0.8514404,0-1.5415039,0.6896973-1.5415039,1.5405273
		c0,0.8510742,0.6900635,1.5407715,1.5415039,1.5407715c0.8513794,0,1.5415039-0.6896973,1.5415039-1.5407715
		C55.1204224,14.5905762,54.4302979,13.9008789,53.5789185,13.9008789z"/>
	<path d="M97.6450806,15.4414062c0-0.8508301-0.6901855-1.5405273-1.5415039-1.5405273
		c-0.8515015,0-1.5415039,0.6896973-1.5415039,1.5405273c0,0.8510742,0.6900024,1.5407715,1.5415039,1.5407715
		C96.954895,16.9821777,97.6450806,16.2924805,97.6450806,15.4414062z"/>
	<path d="M113.3098145,18.0356445c0-0.8505859-0.6901855-1.5405273-1.541626-1.5405273
		c-0.8513794,0-1.5415039,0.6899414-1.5415039,1.5405273c0,0.8510742,0.6901245,1.5405273,1.5415039,1.5405273
		C112.6196289,19.5761719,113.3098145,18.8867188,113.3098145,18.0356445z"/>
	<path d="M108.6032715,16.2304688c0-0.8508301-0.6901855-1.5405273-1.5415649-1.5405273
		c-0.8513184,0-1.5415039,0.6896973-1.5415039,1.5405273s0.6901855,1.5402832,1.5415039,1.5402832
		C107.9130859,17.770752,108.6032715,17.0812988,108.6032715,16.2304688z"/>
	<path d="M103.420105,15.4414062c0-0.8508301-0.6901245-1.5405273-1.5415039-1.5405273
		c-0.8513184,0-1.5415039,0.6896973-1.5415039,1.5405273c0,0.8510742,0.6901855,1.5407715,1.5415039,1.5407715
		C102.7299805,16.9821777,103.420105,16.2924805,103.420105,15.4414062z"/>
	<path d="M65.1290894,83.1582031c-0.8513184,0-1.5415039,0.6899414-1.5415039,1.5407715s0.6901855,1.5402832,1.5415039,1.5402832
		c0.8514404,0,1.5415039-0.6894531,1.5415039-1.5402832S65.9805298,83.1582031,65.1290894,83.1582031z"/>
	<path d="M59.3540039,83.1582031c-0.8513794,0-1.541626,0.6899414-1.541626,1.5407715s0.6902466,1.5402832,1.541626,1.5402832
		s1.5415039-0.6894531,1.5415039-1.5402832S60.2053833,83.1582031,59.3540039,83.1582031z"/>
	<path d="M53.5789185,83.1582031c-0.8514404,0-1.5415039,0.6899414-1.5415039,1.5407715s0.6900635,1.5402832,1.5415039,1.5402832
		c0.8513794,0,1.5415039-0.6894531,1.5415039-1.5402832S54.4302979,83.1582031,53.5789185,83.1582031z"/>
	<path d="M152.9653931,83.1582031c-0.8513794,0-1.5413818,0.6899414-1.5413818,1.5407715s0.6900024,1.5402832,1.5413818,1.5402832
		s1.5415039-0.6894531,1.5415039-1.5402832S153.8167725,83.1582031,152.9653931,83.1582031z"/>
	<path d="M147.1425781,83.1582031c-0.8512573,0-1.5415039,0.6899414-1.5415039,1.5407715s0.6902466,1.5402832,1.5415039,1.5402832
		c0.8513184,0,1.5415039-0.6894531,1.5415039-1.5402832S147.9938965,83.1582031,147.1425781,83.1582031z"/>
	<path d="M161.2265015,23.1113281c0.8513184,0,1.5415039-0.6899414,1.5415039-1.5407715
		c0-0.8505859-0.6901855-1.5402832-1.5415039-1.5402832s-1.5415039,0.6896973-1.5415039,1.5402832
		C159.6849976,22.4213867,160.3751831,23.1113281,161.2265015,23.1113281z"/>
	<path d="M157.8552856,15.9912109c-0.8513184,0-1.5415039,0.6894531-1.5415039,1.5402832s0.6901855,1.5407715,1.5415039,1.5407715
		s1.5415039-0.6899414,1.5415039-1.5407715S158.706604,15.9912109,157.8552856,15.9912109z"/>
	<path d="M152.9653931,13.9338379c-0.8513794,0-1.5413818,0.6896973-1.5413818,1.5405273s0.6900024,1.5405273,1.5413818,1.5405273
		s1.5415039-0.6896973,1.5415039-1.5405273S153.8167725,13.9338379,152.9653931,13.9338379z"/>
	<circle cx="147.1425781" cy="15.4743652" r="1.5410156"/>
	<path d="M59.3540039,54.3012695c-0.8513794,0-1.541626,0.6896973-1.541626,1.5405273
		c0,0.8505859,0.6902466,1.5402832,1.541626,1.5402832s1.5415039-0.6896973,1.5415039-1.5402832
		C60.8955078,54.9909668,60.2053833,54.3012695,59.3540039,54.3012695z"/>
	<path d="M53.5789185,54.3012695c-0.8514404,0-1.5415039,0.6896973-1.5415039,1.5405273
		c0,0.8505859,0.6900635,1.5402832,1.5415039,1.5402832c0.8513794,0,1.5415039-0.6896973,1.5415039-1.5402832
		C55.1204224,54.9909668,54.4302979,54.3012695,53.5789185,54.3012695z"/>
	<path d="M232.3751831,83.1037598c-0.8512573,0-1.5415039,0.6899414-1.5415039,1.5407715s0.6902466,1.5407715,1.5415039,1.5407715
		c0.8515625,0,1.541626-0.6899414,1.541626-1.5407715S233.2267456,83.1037598,232.3751831,83.1037598z"/>
	<circle cx="248.592041" cy="84.6445312" r="1.5411377"/>
	<circle cx="253.9976196" cy="84.6445312" r="1.5411377"/>
	<circle cx="243.1865234" cy="84.6445312" r="1.5411377"/>
	<path d="M237.7809448,83.1037598c-0.8514404,0-1.541626,0.6899414-1.541626,1.5407715s0.6901855,1.5407715,1.541626,1.5407715
		c0.8512573,0,1.5415039-0.6899414,1.5415039-1.5407715S238.6322021,83.1037598,237.7809448,83.1037598z"/>
	<path d="M332.3868408,83.1037598c-0.8515625,0-1.541626,0.6899414-1.541626,1.5407715s0.6900635,1.5407715,1.541626,1.5407715
		c0.8513184,0,1.5413818-0.6899414,1.5413818-1.5407715S333.2381592,83.1037598,332.3868408,83.1037598z"/>
	<path d="M326.9810791,83.1037598c-0.8513184,0-1.5415039,0.6899414-1.5415039,1.5407715s0.6901855,1.5407715,1.5415039,1.5407715
		c0.8514404,0,1.541626-0.6899414,1.541626-1.5407715S327.8325195,83.1037598,326.9810791,83.1037598z"/>
	<path d="M291.5430908,83.1037598c-0.8513184,0-1.5415039,0.6899414-1.5415039,1.5407715s0.6901855,1.5407715,1.5415039,1.5407715
		c0.8514404,0,1.541626-0.6899414,1.541626-1.5407715S292.3945312,83.1037598,291.5430908,83.1037598z"/>
	<circle cx="286.1375732" cy="84.6445312" r="1.5411377"/>
	<path d="M280.2674561,81.0065918c-0.8513184,0-1.5412598,0.6896973-1.5412598,1.5405273s0.6899414,1.5402832,1.5412598,1.5402832
		c0.8514404,0,1.5415039-0.6894531,1.5415039-1.5402832S281.1188965,81.0065918,280.2674561,81.0065918z"/>
	<path d="M365.526001,77.3520508c-0.8513184,0-1.5415039,0.6896973-1.5415039,1.5405273
		c0,0.8510742,0.6901855,1.5407715,1.5415039,1.5407715s1.5415039-0.6896973,1.5415039-1.5407715
		C367.0675049,78.041748,366.3773193,77.3520508,365.526001,77.3520508z"/>
	<path d="M365.526001,83.1237793c-0.8513184,0-1.5415039,0.689209-1.5415039,1.5402832
		c0,0.8508301,0.6901855,1.5405273,1.5415039,1.5405273s1.5415039-0.6896973,1.5415039-1.5405273
		C367.0675049,83.8129883,366.3773193,83.1237793,365.526001,83.1237793z"/>
	<circle cx="365.526001" cy="73.1210938" r="1.5410156"/>
	<path d="M365.526001,65.809082c-0.8513184,0-1.5415039,0.6899414-1.5415039,1.5407715
		c0,0.8505859,0.6901855,1.5402832,1.5415039,1.5402832s1.5415039-0.6896973,1.5415039-1.5402832
		C367.0675049,66.4990234,366.3773193,65.809082,365.526001,65.809082z"/>
	<path d="M365.526001,60.0378418c-0.8513184,0-1.5415039,0.6894531-1.5415039,1.5402832s0.6901855,1.5407715,1.5415039,1.5407715
		s1.5415039-0.6899414,1.5415039-1.5407715S366.3773193,60.0378418,365.526001,60.0378418z"/>
	<circle cx="365.526001" cy="55.8068848" r="1.5411377"/>
	<path d="M365.526001,42.7233887c-0.8513184,0-1.5415039,0.6896973-1.5415039,1.5407715
		c0,0.8505859,0.6901855,1.5402832,1.5415039,1.5402832s1.5415039-0.6896973,1.5415039-1.5402832
		C367.0675049,43.4130859,366.3773193,42.7233887,365.526001,42.7233887z"/>
	<path d="M365.526001,48.494873c-0.8513184,0-1.5415039,0.6896973-1.5415039,1.5405273s0.6901855,1.5402832,1.5415039,1.5402832
		s1.5415039-0.6894531,1.5415039-1.5402832S366.3773193,48.494873,365.526001,48.494873z"/>
	<path d="M365.526001,36.9521484c-0.8513184,0-1.5415039,0.6894531-1.5415039,1.5402832s0.6901855,1.5405273,1.5415039,1.5405273
		s1.5415039-0.6896973,1.5415039-1.5405273S366.3773193,36.9521484,365.526001,36.9521484z"/>
	<path d="M365.526001,31.1804199c-0.8513184,0-1.5415039,0.6896973-1.5415039,1.5405273s0.6901855,1.5407715,1.5415039,1.5407715
		s1.5415039-0.6899414,1.5415039-1.5407715S366.3773193,31.1804199,365.526001,31.1804199z"/>
	<path d="M365.526001,25.4089355c-0.8513184,0-1.5415039,0.6899414-1.5415039,1.5407715s0.6901855,1.5402832,1.5415039,1.5402832
		s1.5415039-0.6894531,1.5415039-1.5402832S366.3773193,25.4089355,365.526001,25.4089355z"/>
	<circle cx="365.526001" cy="21.1782227" r="1.5410156"/>
	<path d="M365.526001,13.8662109c-0.8513184,0-1.5415039,0.6894531-1.5415039,1.5402832s0.6901855,1.5407715,1.5415039,1.5407715
		s1.5415039-0.6899414,1.5415039-1.5407715S366.3773193,13.8662109,365.526001,13.8662109z"/>
	<path d="M321.1153564,77.3520508c-0.8513184,0-1.5415039,0.6896973-1.5415039,1.5405273
		c0,0.8510742,0.6901855,1.5407715,1.5415039,1.5407715s1.5415039-0.6896973,1.5415039-1.5407715
		C322.6568604,78.041748,321.9666748,77.3520508,321.1153564,77.3520508z"/>
	<path d="M321.1153564,83.1237793c-0.8513184,0-1.5415039,0.689209-1.5415039,1.5402832
		c0,0.8508301,0.6901855,1.5405273,1.5415039,1.5405273s1.5415039-0.6896973,1.5415039-1.5405273
		C322.6568604,83.8129883,321.9666748,83.1237793,321.1153564,83.1237793z"/>
	<circle cx="321.1153564" cy="73.1210938" r="1.5410156"/>
	<path d="M321.1153564,65.809082c-0.8513184,0-1.5415039,0.6899414-1.5415039,1.5407715
		c0,0.8505859,0.6901855,1.5402832,1.5415039,1.5402832s1.5415039-0.6896973,1.5415039-1.5402832
		C322.6568604,66.4990234,321.9666748,65.809082,321.1153564,65.809082z"/>
	<path d="M321.1153564,60.0378418c-0.8513184,0-1.5415039,0.6894531-1.5415039,1.5402832s0.6901855,1.5407715,1.5415039,1.5407715
		s1.5415039-0.6899414,1.5415039-1.5407715S321.9666748,60.0378418,321.1153564,60.0378418z"/>
	<circle cx="321.1153564" cy="55.8068848" r="1.5411377"/>
	<path d="M326.9810791,54.2661133c-0.8513184,0-1.5415039,0.6899414-1.5415039,1.5407715s0.6901855,1.5407715,1.5415039,1.5407715
		c0.8514404,0,1.541626-0.6899414,1.541626-1.5407715S327.8325195,54.2661133,326.9810791,54.2661133z"/>
	<path d="M332.3868408,54.2661133c-0.8515625,0-1.541626,0.6899414-1.541626,1.5407715s0.6900635,1.5407715,1.541626,1.5407715
		c0.8513184,0,1.5413818-0.6899414,1.5413818-1.5407715S333.2381592,54.2661133,332.3868408,54.2661133z"/>
	<path d="M326.9810791,13.8662109c-0.8513184,0-1.5415039,0.6894531-1.5415039,1.5402832s0.6901855,1.5407715,1.5415039,1.5407715
		c0.8514404,0,1.541626-0.6899414,1.541626-1.5407715S327.8325195,13.8662109,326.9810791,13.8662109z"/>
	<path d="M332.3868408,13.8662109c-0.8515625,0-1.541626,0.6894531-1.541626,1.5402832s0.6900635,1.5407715,1.541626,1.5407715
		c0.8513184,0,1.5413818-0.6899414,1.5413818-1.5407715S333.2381592,13.8662109,332.3868408,13.8662109z"/>
	<path d="M337.4119873,18.487793c0.8513184,0,1.5415039-0.6896973,1.5415039-1.5405273s-0.6901855-1.5407715-1.5415039-1.5407715
		c-0.8515625,0-1.541748,0.6899414-1.541748,1.5407715S336.5604248,18.487793,337.4119873,18.487793z"/>
	<path d="M341.7115479,77.3520508c-0.8513184,0-1.5415039,0.6896973-1.5415039,1.5405273
		c0,0.8510742,0.6901855,1.5407715,1.5415039,1.5407715c0.8515625,0,1.541748-0.6896973,1.541748-1.5407715
		C343.2532959,78.041748,342.5631104,77.3520508,341.7115479,77.3520508z"/>
	<path d="M337.855835,81.2670898c-0.8515625,0-1.5415039,0.6896973-1.5415039,1.5405273s0.6899414,1.5407715,1.5415039,1.5407715
		c0.8513184,0,1.5415039-0.6899414,1.5415039-1.5407715S338.7071533,81.2670898,337.855835,81.2670898z"/>
	<path d="M341.7115479,71.5805664c-0.8513184,0-1.5415039,0.6899414-1.5415039,1.5405273
		c0,0.8510742,0.6901855,1.5405273,1.5415039,1.5405273c0.8515625,0,1.541748-0.6894531,1.541748-1.5405273
		C343.2532959,72.2705078,342.5631104,71.5805664,341.7115479,71.5805664z"/>
	<path d="M341.7115479,65.809082c-0.8513184,0-1.5415039,0.6899414-1.5415039,1.5407715
		c0,0.8505859,0.6901855,1.5402832,1.5415039,1.5402832c0.8515625,0,1.541748-0.6896973,1.541748-1.5402832
		C343.2532959,66.4990234,342.5631104,65.809082,341.7115479,65.809082z"/>
	<path d="M341.2945557,62.5153809c0.8513184,0,1.5415039-0.6896973,1.5415039-1.5402832
		c0-0.8508301-0.6901855-1.5405273-1.5415039-1.5405273s-1.5415039,0.6896973-1.5415039,1.5405273
		C339.7530518,61.8256836,340.4432373,62.5153809,341.2945557,62.5153809z"/>
	<circle cx="337.9749756" cy="55.8068848" r="1.5411377"/>
	<path d="M321.1153564,42.7233887c-0.8513184,0-1.5415039,0.6896973-1.5415039,1.5407715
		c0,0.8505859,0.6901855,1.5402832,1.5415039,1.5402832s1.5415039-0.6896973,1.5415039-1.5402832
		C322.6568604,43.4130859,321.9666748,42.7233887,321.1153564,42.7233887z"/>
	<path d="M321.1153564,48.494873c-0.8513184,0-1.5415039,0.6896973-1.5415039,1.5405273s0.6901855,1.5402832,1.5415039,1.5402832
		s1.5415039-0.6894531,1.5415039-1.5402832S321.9666748,48.494873,321.1153564,48.494873z"/>
	<path d="M321.1153564,36.9521484c-0.8513184,0-1.5415039,0.6894531-1.5415039,1.5402832s0.6901855,1.5405273,1.5415039,1.5405273
		s1.5415039-0.6896973,1.5415039-1.5405273S321.9666748,36.9521484,321.1153564,36.9521484z"/>
	<path d="M321.1153564,31.1804199c-0.8513184,0-1.5415039,0.6896973-1.5415039,1.5405273s0.6901855,1.5407715,1.5415039,1.5407715
		s1.5415039-0.6899414,1.5415039-1.5407715S321.9666748,31.1804199,321.1153564,31.1804199z"/>
	<path d="M321.1153564,25.4089355c-0.8513184,0-1.5415039,0.6899414-1.5415039,1.5407715s0.6901855,1.5402832,1.5415039,1.5402832
		s1.5415039-0.6894531,1.5415039-1.5402832S321.9666748,25.4089355,321.1153564,25.4089355z"/>
	<circle cx="321.1153564" cy="21.1782227" r="1.5410156"/>
	<path d="M341.7115479,42.9614258c-0.8513184,0-1.5415039,0.6899414-1.5415039,1.5407715s0.6901855,1.5405273,1.5415039,1.5405273
		c0.8515625,0,1.541748-0.6896973,1.541748-1.5405273S342.5631104,42.9614258,341.7115479,42.9614258z"/>
	<path d="M340.9388428,51.9936523c0.8513184,0,1.5415039-0.6899414,1.5415039-1.5407715s-0.6901855-1.5402832-1.5415039-1.5402832
		c-0.8514404,0-1.5415039,0.6894531-1.5415039,1.5402832S340.0874023,51.9936523,340.9388428,51.9936523z"/>
	<path d="M341.7115479,36.9521484c-0.8513184,0-1.5415039,0.6894531-1.5415039,1.5402832s0.6901855,1.5405273,1.5415039,1.5405273
		c0.8515625,0,1.541748-0.6896973,1.541748-1.5405273S342.5631104,36.9521484,341.7115479,36.9521484z"/>
	<path d="M341.7115479,31.1804199c-0.8513184,0-1.5415039,0.6896973-1.5415039,1.5405273s0.6901855,1.5407715,1.5415039,1.5407715
		c0.8515625,0,1.541748-0.6899414,1.541748-1.5407715S342.5631104,31.1804199,341.7115479,31.1804199z"/>
	<path d="M341.7115479,25.4089355c-0.8513184,0-1.5415039,0.6899414-1.5415039,1.5407715s0.6901855,1.5402832,1.5415039,1.5402832
		c0.8515625,0,1.541748-0.6894531,1.541748-1.5402832S342.5631104,25.4089355,341.7115479,25.4089355z"/>
	<circle cx="340.9388428" cy="21.1782227" r="1.5410156"/>
	<path d="M321.1153564,13.8662109c-0.8513184,0-1.5415039,0.6894531-1.5415039,1.5402832s0.6901855,1.5407715,1.5415039,1.5407715
		s1.5415039-0.6899414,1.5415039-1.5407715S321.9666748,13.8662109,321.1153564,13.8662109z"/>
	<path d="M277.4144287,76.7856445c-0.8513184,0-1.5415039,0.6894531-1.5415039,1.5400391
		c0,0.8510742,0.6901855,1.5407715,1.5415039,1.5407715s1.5415039-0.6896973,1.5415039-1.5407715
		C278.9559326,77.4750977,278.2657471,76.7856445,277.4144287,76.7856445z"/>
	<path d="M278.2128906,73.1210938c0-0.8505859-0.6900635-1.5405273-1.5413818-1.5405273
		c-0.8515625,0-1.5415039,0.6899414-1.5415039,1.5405273c0,0.8510742,0.6899414,1.5405273,1.5415039,1.5405273
		C277.5228271,74.6616211,278.2128906,73.972168,278.2128906,73.1210938z"/>
	<path d="M276.6715088,68.8901367c0.8513184,0,1.5413818-0.6896973,1.5413818-1.5402832
		c0-0.8508301-0.6900635-1.5407715-1.5413818-1.5407715c-0.8515625,0-1.5415039,0.6899414-1.5415039,1.5407715
		C275.1300049,68.2004395,275.8199463,68.8901367,276.6715088,68.8901367z"/>
	<path d="M276.6715088,63.1188965c0.8513184,0,1.5413818-0.6899414,1.5413818-1.5407715s-0.6900635-1.5402832-1.5413818-1.5402832
		c-0.8515625,0-1.5415039,0.6894531-1.5415039,1.5402832S275.8199463,63.1188965,276.6715088,63.1188965z"/>
	<path d="M276.6715088,57.3476562c0.8513184,0,1.5413818-0.6899414,1.5413818-1.5407715s-0.6900635-1.5407715-1.5413818-1.5407715
		c-0.8515625,0-1.5415039,0.6899414-1.5415039,1.5407715S275.8199463,57.3476562,276.6715088,57.3476562z"/>
	<path d="M276.6715088,45.8044434c0.8513184,0,1.5413818-0.6896973,1.5413818-1.5402832
		c0-0.8510742-0.6900635-1.5407715-1.5413818-1.5407715c-0.8515625,0-1.5415039,0.6896973-1.5415039,1.5407715
		C275.1300049,45.1147461,275.8199463,45.8044434,276.6715088,45.8044434z"/>
	<path d="M276.6715088,51.5756836c0.8513184,0,1.5413818-0.6894531,1.5413818-1.5402832s-0.6900635-1.5405273-1.5413818-1.5405273
		c-0.8515625,0-1.5415039,0.6896973-1.5415039,1.5405273S275.8199463,51.5756836,276.6715088,51.5756836z"/>
	<path d="M276.6715088,40.032959c0.8513184,0,1.5413818-0.6896973,1.5413818-1.5405273s-0.6900635-1.5402832-1.5413818-1.5402832
		c-0.8515625,0-1.5415039,0.6894531-1.5415039,1.5402832S275.8199463,40.032959,276.6715088,40.032959z"/>
	<path d="M276.6715088,34.2617188c0.8513184,0,1.5413818-0.6899414,1.5413818-1.5407715s-0.6900635-1.5405273-1.5413818-1.5405273
		c-0.8515625,0-1.5415039,0.6896973-1.5415039,1.5405273S275.8199463,34.2617188,276.6715088,34.2617188z"/>
	<path d="M276.6715088,28.4899902c0.8513184,0,1.5413818-0.6894531,1.5413818-1.5402832s-0.6900635-1.5407715-1.5413818-1.5407715
		c-0.8515625,0-1.5415039,0.6899414-1.5415039,1.5407715S275.8199463,28.4899902,276.6715088,28.4899902z"/>
	<path d="M276.6715088,22.71875c0.8513184,0,1.5413818-0.6896973,1.5413818-1.5405273s-0.6900635-1.5405273-1.5413818-1.5405273
		c-0.8515625,0-1.5415039,0.6896973-1.5415039,1.5405273S275.8199463,22.71875,276.6715088,22.71875z"/>
	<path d="M276.6715088,16.9472656c0.8513184,0,1.5413818-0.6899414,1.5413818-1.5407715s-0.6900635-1.5402832-1.5413818-1.5402832
		c-0.8515625,0-1.5415039,0.6894531-1.5415039,1.5402832S275.8199463,16.9472656,276.6715088,16.9472656z"/>
	<path d="M232.3751831,77.3520508c-0.8512573,0-1.5415039,0.6896973-1.5415039,1.5405273
		c0,0.8510742,0.6902466,1.5407715,1.5415039,1.5407715c0.8515625,0,1.541626-0.6896973,1.541626-1.5407715
		C233.9168091,78.041748,233.2267456,77.3520508,232.3751831,77.3520508z"/>
	<path d="M232.3751831,71.5805664c-0.8512573,0-1.5415039,0.6899414-1.5415039,1.5405273
		c0,0.8510742,0.6902466,1.5405273,1.5415039,1.5405273c0.8515625,0,1.541626-0.6894531,1.541626-1.5405273
		C233.9168091,72.2705078,233.2267456,71.5805664,232.3751831,71.5805664z"/>
	<path d="M238.2869263,42.1318359c-0.8513794,0-1.5415039,0.6894531-1.5415039,1.5402832s0.6901245,1.5405273,1.5415039,1.5405273
		c0.8513184,0,1.5413818-0.6896973,1.5413818-1.5405273S239.1382446,42.1318359,238.2869263,42.1318359z"/>
	<path d="M236.7454224,38.0053711c0-0.8510742-0.6901855-1.5407715-1.5415039-1.5407715
		c-0.8515015,0-1.5415039,0.6896973-1.5415039,1.5407715c0,0.8508301,0.6900024,1.5402832,1.5415039,1.5402832
		C236.0552368,39.5456543,236.7454224,38.8562012,236.7454224,38.0053711z"/>
	<path d="M231.7741699,32.4772949c0,0.8508301,0.6902466,1.5407715,1.5415649,1.5407715
		c0.8512573,0,1.5415039-0.6899414,1.5415039-1.5407715s-0.6902466-1.5402832-1.5415039-1.5402832
		C232.4644165,30.9370117,231.7741699,31.6264648,231.7741699,32.4772949z"/>
	<path d="M232.3751831,28.1420898c0.8515625,0,1.541626-0.6899414,1.541626-1.5407715
		c0-0.8503418-0.6900635-1.5402832-1.541626-1.5402832c-0.8512573,0-1.5415039,0.6899414-1.5415039,1.5402832
		C230.8336792,27.4521484,231.5239258,28.1420898,232.3751831,28.1420898z"/>
	<path d="M252.9959106,66.4099121c0-0.8508301-0.6901855-1.5405273-1.5415039-1.5405273
		c-0.8513794,0-1.5415039,0.6896973-1.5415039,1.5405273s0.6901245,1.5402832,1.5415039,1.5402832
		C252.3057251,67.9501953,252.9959106,67.2607422,252.9959106,66.4099121z"/>
	<path d="M254.708313,72.4946289c0-0.8508301-0.6900635-1.5405273-1.5413818-1.5405273
		c-0.8515015,0-1.541626,0.6896973-1.541626,1.5405273s0.6901245,1.5407715,1.541626,1.5407715
		C254.0182495,74.0354004,254.708313,73.345459,254.708313,72.4946289z"/>
	<path d="M253.8226318,79.8664551c0.8513184,0,1.5415039-0.6896973,1.5415039-1.5407715
		c0-0.8505859-0.6901855-1.5400391-1.5415039-1.5400391s-1.5415039,0.6894531-1.5415039,1.5400391
		C252.2811279,79.1767578,252.9713135,79.8664551,253.8226318,79.8664551z"/>
	<path d="M249.046936,59.2521973c-0.8515015,0-1.5415039,0.6896973-1.5415039,1.5407715
		c0,0.8508301,0.6900024,1.5402832,1.5415039,1.5402832c0.8512573,0,1.5415039-0.6894531,1.5415039-1.5402832
		C250.5884399,59.9418945,249.8981934,59.2521973,249.046936,59.2521973z"/>
	<path d="M247.5054321,54.8125c0-0.8508301-0.6901855-1.5402832-1.541626-1.5402832
		c-0.8513794,0-1.5415039,0.6894531-1.5415039,1.5402832s0.6901245,1.5405273,1.5415039,1.5405273
		C246.8152466,56.3530273,247.5054321,55.6633301,247.5054321,54.8125z"/>
	<path d="M243.4833984,49.0061035c0-0.8508301-0.6900024-1.5402832-1.5415039-1.5402832
		c-0.8512573,0-1.5415039,0.6894531-1.5415039,1.5402832s0.6902466,1.5407715,1.5415039,1.5407715
		C242.793396,50.546875,243.4833984,49.8569336,243.4833984,49.0061035z"/>
	<path d="M233.9168091,22.71875c0.8514404,0,1.5415039-0.6896973,1.5415039-1.5405273s-0.6900635-1.5405273-1.5415039-1.5405273
		c-0.8513794,0-1.541626,0.6896973-1.541626,1.5405273S233.0654297,22.71875,233.9168091,22.71875z"/>
	<path d="M237.9481201,18.487793c0.8513794,0,1.5415039-0.6896973,1.5415039-1.5405273s-0.6901245-1.5407715-1.5415039-1.5407715
		s-1.5413818,0.6899414-1.5413818,1.5407715S237.0967407,18.487793,237.9481201,18.487793z"/>
	<circle cx="243.2770996" cy="15.7290039" r="1.5410156"/>
	<path d="M248.8847046,19.0795898c0.8515015,0,1.5415039-0.6899414,1.5415039-1.5405273
		c0-0.8510742-0.6900024-1.5405273-1.5415039-1.5405273c-0.8512573,0-1.5413818,0.6894531-1.5413818,1.5405273
		C247.3433228,18.3896484,248.0334473,19.0795898,248.8847046,19.0795898z"/>
	<path d="M252.4026489,23.2563477c0.8513794,0,1.5414429-0.6896973,1.5414429-1.5405273s-0.6900635-1.5405273-1.5414429-1.5405273
		c-0.8513184,0-1.5415039,0.6896973-1.5415039,1.5405273S251.5513306,23.2563477,252.4026489,23.2563477z"/>
	<path d="M251.8588257,26.6240234c0,0.8505859,0.6901855,1.5402832,1.5415039,1.5402832
		c0.8515015,0,1.5415039-0.6896973,1.5415039-1.5402832c0-0.8510742-0.6900024-1.5407715-1.5415039-1.5407715
		C252.5490112,25.083252,251.8588257,25.7729492,251.8588257,26.6240234z"/>
	<path d="M253.4003296,30.3566895c-0.8513184,0-1.5415039,0.6896973-1.5415039,1.5407715
		c0,0.8505859,0.6901855,1.5402832,1.5415039,1.5402832c0.8515015,0,1.5415039-0.6896973,1.5415039-1.5402832
		C254.9418335,31.0463867,254.2518311,30.3566895,253.4003296,30.3566895z"/>
	<path d="M297.383667,77.3869629c-0.8513184,0-1.5415039,0.6896973-1.5415039,1.5407715
		c0,0.8503418,0.6901855,1.5402832,1.5415039,1.5402832c0.8514404,0,1.541626-0.6899414,1.541626-1.5402832
		C298.925293,78.0766602,298.2351074,77.3869629,297.383667,77.3869629z"/>
	<path d="M297.383667,83.1582031c-0.8513184,0-1.5415039,0.6899414-1.5415039,1.5407715s0.6901855,1.5402832,1.5415039,1.5402832
		c0.8514404,0,1.541626-0.6894531,1.541626-1.5402832S298.2351074,83.1582031,297.383667,83.1582031z"/>
	<path d="M297.383667,71.6154785c-0.8513184,0-1.5415039,0.6896973-1.5415039,1.5405273s0.6901855,1.5405273,1.5415039,1.5405273
		c0.8514404,0,1.541626-0.6896973,1.541626-1.5405273S298.2351074,71.6154785,297.383667,71.6154785z"/>
	<path d="M297.383667,65.84375c-0.8513184,0-1.5415039,0.6899414-1.5415039,1.5407715s0.6901855,1.5407715,1.5415039,1.5407715
		c0.8514404,0,1.541626-0.6899414,1.541626-1.5407715S298.2351074,65.84375,297.383667,65.84375z"/>
	<path d="M297.383667,60.0725098c-0.8513184,0-1.5415039,0.6896973-1.5415039,1.5405273
		c0,0.8510742,0.6901855,1.5405273,1.5415039,1.5405273c0.8514404,0,1.541626-0.6894531,1.541626-1.5405273
		C298.925293,60.762207,298.2351074,60.0725098,297.383667,60.0725098z"/>
	<path d="M297.383667,54.3012695c-0.8513184,0-1.5415039,0.6896973-1.5415039,1.5405273
		c0,0.8505859,0.6901855,1.5402832,1.5415039,1.5402832c0.8514404,0,1.541626-0.6896973,1.541626-1.5402832
		C298.925293,54.9909668,298.2351074,54.3012695,297.383667,54.3012695z"/>
	<path d="M297.383667,42.7583008c-0.8513184,0-1.5415039,0.6894531-1.5415039,1.5405273
		c0,0.8505859,0.6901855,1.5405273,1.5415039,1.5405273c0.8514404,0,1.541626-0.6899414,1.541626-1.5405273
		C298.925293,43.4477539,298.2351074,42.7583008,297.383667,42.7583008z"/>
	<path d="M297.383667,48.5297852c-0.8513184,0-1.5415039,0.6894531-1.5415039,1.5402832s0.6901855,1.5407715,1.5415039,1.5407715
		c0.8514404,0,1.541626-0.6899414,1.541626-1.5407715S298.2351074,48.5297852,297.383667,48.5297852z"/>
	<path d="M297.383667,36.9865723c-0.8513184,0-1.5415039,0.6899414-1.5415039,1.5407715s0.6901855,1.5402832,1.5415039,1.5402832
		c0.8514404,0,1.541626-0.6894531,1.541626-1.5402832S298.2351074,36.9865723,297.383667,36.9865723z"/>
	<path d="M297.383667,31.215332c-0.8513184,0-1.5415039,0.6899414-1.5415039,1.5405273
		c0,0.8510742,0.6901855,1.5405273,1.5415039,1.5405273c0.8514404,0,1.541626-0.6894531,1.541626-1.5405273
		C298.925293,31.9052734,298.2351074,31.215332,297.383667,31.215332z"/>
	<path d="M297.383667,25.4438477c-0.8513184,0-1.5415039,0.6894531-1.5415039,1.5405273
		c0,0.8508301,0.6901855,1.5405273,1.5415039,1.5405273c0.8514404,0,1.541626-0.6896973,1.541626-1.5405273
		C298.925293,26.1333008,298.2351074,25.4438477,297.383667,25.4438477z"/>
	<circle cx="296.269165" cy="21.1782227" r="1.5410156"/>
	<path d="M293.1861572,15.6694336c-0.8514404,0-1.5415039,0.6899414-1.5415039,1.5407715s0.6900635,1.5402832,1.5415039,1.5402832
		c0.8513184,0,1.5415039-0.6894531,1.5415039-1.5402832S294.0374756,15.6694336,293.1861572,15.6694336z"/>
	<path d="M288.460083,13.8662109c-0.8513184,0-1.5415039,0.6894531-1.5415039,1.5402832s0.6901855,1.5407715,1.5415039,1.5407715
		s1.5415039-0.6899414,1.5415039-1.5407715S289.3114014,13.8662109,288.460083,13.8662109z"/>
	<path d="M282.1964111,13.8662109c-0.8515625,0-1.5415039,0.6894531-1.5415039,1.5402832s0.6899414,1.5407715,1.5415039,1.5407715
		c0.8511963,0,1.5413818-0.6899414,1.5413818-1.5407715S283.0476074,13.8662109,282.1964111,13.8662109z"/>
	<path d="M381.3098145,15.4064941c0,0.8508301,0.6901855,1.5407715,1.5415039,1.5407715s1.5415039-0.6899414,1.5415039-1.5407715
		s-0.6901855-1.5402832-1.5415039-1.5402832S381.3098145,14.5556641,381.3098145,15.4064941z"/>
	<path d="M377.0762939,13.8662109c-0.8515625,0-1.541748,0.6894531-1.541748,1.5402832s0.6901855,1.5407715,1.541748,1.5407715
		c0.8513184,0,1.5415039-0.6899414,1.5415039-1.5407715S377.9276123,13.8662109,377.0762939,13.8662109z"/>
	<path d="M374.1885986,6.1618652c-0.8513184,0-1.5413818,0.6899414-1.5413818,1.5407715s0.6900635,1.5405273,1.5413818,1.5405273
		c0.8514404,0,1.5415039-0.6896973,1.5415039-1.5405273S375.0400391,6.1618652,374.1885986,6.1618652z"/>
	<path d="M372.2471924,4.621582c0-0.8508301-0.6901855-1.5405273-1.5415039-1.5405273s-1.5415039,0.6896973-1.5415039,1.5405273
		s0.6901855,1.5402832,1.5415039,1.5402832S372.2471924,5.4724121,372.2471924,4.621582z"/>
	<circle cx="367.6226807" cy="1.5405273" r="1.5410156"/>
	<circle cx="380.8730469" cy="1.5405273" r="1.5410156"/>
	<path d="M377.789917,3.0810547c-0.8513184,0-1.5415039,0.6896973-1.5415039,1.5405273s0.6901855,1.5402832,1.5415039,1.5402832
		s1.541626-0.6894531,1.541626-1.5402832S378.6412354,3.0810547,377.789917,3.0810547z"/>
	<path d="M371.3011475,13.8662109c-0.8514404,0-1.5415039,0.6894531-1.5415039,1.5402832s0.6900635,1.5407715,1.5415039,1.5407715
		c0.8513184,0,1.5415039-0.6899414,1.5415039-1.5407715S372.1524658,13.8662109,371.3011475,13.8662109z"/>
	<path d="M382.8513184,83.1237793c-0.8513184,0-1.5415039,0.689209-1.5415039,1.5402832
		c0,0.8508301,0.6901855,1.5405273,1.5415039,1.5405273s1.5415039-0.6896973,1.5415039-1.5405273
		C384.3928223,83.8129883,383.7026367,83.1237793,382.8513184,83.1237793z"/>
	<path d="M377.0762939,83.1237793c-0.8515625,0-1.541748,0.689209-1.541748,1.5402832
		c0,0.8508301,0.6901855,1.5405273,1.541748,1.5405273c0.8513184,0,1.5415039-0.6896973,1.5415039-1.5405273
		C378.6177979,83.8129883,377.9276123,83.1237793,377.0762939,83.1237793z"/>
	<path d="M371.3011475,83.1237793c-0.8514404,0-1.5415039,0.689209-1.5415039,1.5402832
		c0,0.8508301,0.6900635,1.5405273,1.5415039,1.5405273c0.8513184,0,1.5415039-0.6896973,1.5415039-1.5405273
		C372.8426514,83.8129883,372.1524658,83.1237793,371.3011475,83.1237793z"/>
	<path d="M377.0762939,54.2661133c-0.8515625,0-1.541748,0.6899414-1.541748,1.5407715s0.6901855,1.5407715,1.541748,1.5407715
		c0.8513184,0,1.5415039-0.6899414,1.5415039-1.5407715S377.9276123,54.2661133,377.0762939,54.2661133z"/>
	<circle cx="371.3011475" cy="55.8068848" r="1.5411377"/>
	<path d="M98.5430908,51.6123047c0.8513184,0,1.5415039-0.6896973,1.5415039-1.5405273s-0.6901855-1.5402832-1.5415039-1.5402832
		s-1.5415039,0.6894531-1.5415039,1.5402832S97.6917725,51.6123047,98.5430908,51.6123047z"/>
	<path d="M109.859375,45.8393555c-0.8513794,0-1.5415039,0.6894531-1.5415039,1.5402832s0.6901245,1.5407715,1.5415039,1.5407715
		c0.8513184,0,1.5415039-0.6899414,1.5415039-1.5407715S110.7106934,45.8393555,109.859375,45.8393555z"/>
	<path d="M104.3182983,47.6030273c-0.8515015,0-1.541626,0.6896973-1.541626,1.5405273s0.6901245,1.5405273,1.541626,1.5405273
		c0.8513184,0,1.5415039-0.6896973,1.5415039-1.5405273S105.1696167,47.6030273,104.3182983,47.6030273z"/>
	<path d="M115.09729,69.510498c0-0.8508301-0.6900024-1.5407715-1.5415039-1.5407715
		c-0.8512573,0-1.5415039,0.6899414-1.5415039,1.5407715s0.6902466,1.5402832,1.5415039,1.5402832
		C114.4072876,71.0507812,115.09729,70.3613281,115.09729,69.510498z"/>
	<path d="M116.0443726,76.0598145c0.8514404,0,1.541626-0.6899414,1.541626-1.5407715s-0.6901855-1.5405273-1.541626-1.5405273
		c-0.8512573,0-1.5415039,0.6896973-1.5415039,1.5405273S115.1931152,76.0598145,116.0443726,76.0598145z"/>
	<path d="M116.3928223,78.298584c-0.8514404,0-1.5415039,0.6896973-1.5415039,1.5402832
		c0,0.8510742,0.6900635,1.5407715,1.5415039,1.5407715c0.8512573,0,1.5413818-0.6896973,1.5413818-1.5407715
		C117.9342041,78.9882812,117.2440796,78.298584,116.3928223,78.298584z"/>
	<circle cx="109.4064941" cy="66.4133301" r="1.5411377"/>
	<path d="M104.3182983,63.3322754c-0.8515015,0-1.541626,0.6899414-1.541626,1.5402832
		c0,0.8510742,0.6901245,1.5407715,1.541626,1.5407715c0.8513184,0,1.5415039-0.6896973,1.5415039-1.5407715
		C105.8598022,64.0222168,105.1696167,63.3322754,104.3182983,63.3322754z"/>
	<path d="M98.7802124,62.2531738c-0.8513184,0-1.5415039,0.6899414-1.5415039,1.5407715s0.6901855,1.5402832,1.5415039,1.5402832
		c0.8513794,0,1.5415649-0.6894531,1.5415649-1.5402832S99.6315918,62.2531738,98.7802124,62.2531738z"/>
	<path d="M17.6586914,47.6984863c-0.3370972-0.7814941-1.2440186-1.1418457-2.0258789-0.8049316
		c-0.7817383,0.3364258-1.142395,1.2431641-0.8054199,2.0244141c0.3369141,0.78125,1.2438965,1.1416016,2.0256958,0.8049316
		C17.6350098,49.3862305,17.9956055,48.4794922,17.6586914,47.6984863z"/>
	<path d="M17.7625122,51.8312988c-0.7819214,0.3369141-1.1425171,1.2431641-0.805603,2.0244141
		c0.3369141,0.7814941,1.2440186,1.1418457,2.0256958,0.8051758c0.7819214-0.3369141,1.1425171-1.2434082,0.805603-2.0244141
		C19.4511719,51.8549805,18.5441895,51.4943848,17.7625122,51.8312988z"/>
	<path d="M15.5289917,42.7607422c-0.3369141-0.7817383-1.2437744-1.1420898-2.0256958-0.8051758
		c-0.7817993,0.3369141-1.142395,1.2431641-0.805481,2.0244141c0.3369751,0.78125,1.2438965,1.1420898,2.0257568,0.8051758
		C15.5054932,44.4482422,15.8660889,43.5419922,15.5289917,42.7607422z"/>
	<path d="M13.3994751,37.8227539c-0.336853-0.78125-1.2438965-1.1416016-2.0256958-0.8051758
		c-0.7818604,0.3369141-1.1424561,1.2431641-0.805481,2.0249023c0.3369751,0.78125,1.2438965,1.1416016,2.0258179,0.8046875
		C13.3757935,39.5102539,13.7363892,38.6040039,13.3994751,37.8227539z"/>
	<path d="M11.2700195,32.8847656c-0.3370361-0.78125-1.2440186-1.1416016-2.0258179-0.8046875
		c-0.7817993,0.3366699-1.1425171,1.2431641-0.805481,2.0241699c0.3369751,0.7814941,1.2438965,1.1418457,2.0257568,0.8051758
		C11.2462769,34.5727539,11.6068726,33.6662598,11.2700195,32.8847656z"/>
	<path d="M9.1403809,27.9470215c-0.336853-0.78125-1.2438965-1.1416016-2.0256958-0.8051758
		c-0.7818604,0.3369141-1.1424561,1.2434082-0.805481,2.0244141c0.3369141,0.7817383,1.2438965,1.1420898,2.0256958,0.8051758
		C9.1168213,29.6347656,9.477417,28.7282715,9.1403809,27.9470215z"/>
	<path d="M7.0109253,23.0090332c-0.3370361-0.78125-1.2438965-1.1416016-2.0258179-0.8049316
		c-0.7817993,0.3366699-1.142395,1.2434082-0.805481,2.0244141c0.3369751,0.7814941,1.2439575,1.1418457,2.0257568,0.8049316
		C6.9871826,24.6967773,7.3479004,23.7905273,7.0109253,23.0090332z"/>
	<path d="M22.4263306,77.3869629c-0.8513184,0-1.5415039,0.6896973-1.5415039,1.5407715
		c0,0.8503418,0.6901855,1.5402832,1.5415039,1.5402832c0.8513794,0,1.5414429-0.6899414,1.5414429-1.5402832
		C23.9677734,78.0766602,23.27771,77.3869629,22.4263306,77.3869629z"/>
	<path d="M22.4263306,83.1582031c-0.8513184,0-1.5415039,0.6899414-1.5415039,1.5407715s0.6901855,1.5402832,1.5415039,1.5402832
		c0.8513794,0,1.5414429-0.6894531,1.5414429-1.5402832S23.27771,83.1582031,22.4263306,83.1582031z"/>
	<path d="M22.4263306,71.6154785c-0.8513184,0-1.5415039,0.6896973-1.5415039,1.5405273s0.6901855,1.5405273,1.5415039,1.5405273
		c0.8513794,0,1.5414429-0.6896973,1.5414429-1.5405273S23.27771,71.6154785,22.4263306,71.6154785z"/>
	<path d="M22.4263306,65.84375c-0.8513184,0-1.5415039,0.6899414-1.5415039,1.5407715s0.6901855,1.5407715,1.5415039,1.5407715
		c0.8513794,0,1.5414429-0.6899414,1.5414429-1.5407715S23.27771,65.84375,22.4263306,65.84375z"/>
	<path d="M22.4263306,60.0725098c-0.8513184,0-1.5415039,0.6896973-1.5415039,1.5405273
		c0,0.8510742,0.6901855,1.5405273,1.5415039,1.5405273c0.8513794,0,1.5414429-0.6894531,1.5414429-1.5405273
		C23.9677734,60.762207,23.27771,60.0725098,22.4263306,60.0725098z"/>
	<path d="M22.4263306,54.3012695c-0.8513184,0-1.5415039,0.6896973-1.5415039,1.5405273
		c0,0.8505859,0.6901855,1.5402832,1.5415039,1.5402832c0.8513794,0,1.5414429-0.6896973,1.5414429-1.5402832
		C23.9677734,54.9909668,23.27771,54.3012695,22.4263306,54.3012695z"/>
	<path d="M22.4263306,42.7583008c-0.8513184,0-1.5415039,0.6894531-1.5415039,1.5405273
		c0,0.8505859,0.6901855,1.5405273,1.5415039,1.5405273c0.8513794,0,1.5414429-0.6899414,1.5414429-1.5405273
		C23.9677734,43.4477539,23.27771,42.7583008,22.4263306,42.7583008z"/>
	<path d="M22.4263306,48.5297852c-0.8513184,0-1.5415039,0.6894531-1.5415039,1.5402832s0.6901855,1.5407715,1.5415039,1.5407715
		c0.8513794,0,1.5414429-0.6899414,1.5414429-1.5407715S23.27771,48.5297852,22.4263306,48.5297852z"/>
	<path d="M22.4263306,36.9865723c-0.8513184,0-1.5415039,0.6899414-1.5415039,1.5407715s0.6901855,1.5402832,1.5415039,1.5402832
		c0.8513794,0,1.5414429-0.6894531,1.5414429-1.5402832S23.27771,36.9865723,22.4263306,36.9865723z"/>
	<path d="M22.4263306,31.215332c-0.8513184,0-1.5415039,0.6899414-1.5415039,1.5405273
		c0,0.8510742,0.6901855,1.5405273,1.5415039,1.5405273c0.8513794,0,1.5414429-0.6894531,1.5414429-1.5405273
		C23.9677734,31.9052734,23.27771,31.215332,22.4263306,31.215332z"/>
	<path d="M22.4263306,25.4438477c-0.8513184,0-1.5415039,0.6894531-1.5415039,1.5405273
		c0,0.8508301,0.6901855,1.5405273,1.5415039,1.5405273c0.8513794,0,1.5414429-0.6896973,1.5414429-1.5405273
		C23.9677734,26.1333008,23.27771,25.4438477,22.4263306,25.4438477z"/>
	<path d="M22.4263306,19.6726074c-0.8513184,0-1.5415039,0.6894531-1.5415039,1.5402832s0.6901855,1.5405273,1.5415039,1.5405273
		c0.8513794,0,1.5414429-0.6896973,1.5414429-1.5405273S23.27771,19.6726074,22.4263306,19.6726074z"/>
	<path d="M22.4263306,13.9008789c-0.8513184,0-1.5415039,0.6896973-1.5415039,1.5405273
		c0,0.8510742,0.6901855,1.5407715,1.5415039,1.5407715c0.8513794,0,1.5414429-0.6896973,1.5414429-1.5407715
		C23.9677734,14.5905762,23.27771,13.9008789,22.4263306,13.9008789z"/>
</g>
</svg>
