<?xml version="1.0" encoding="utf-8"?>
<!-- Generator: Adobe Illustrator 26.4.1, SVG Export Plug-In . SVG Version: 6.00 Build 0)  -->
<svg version="1.1" id="Vrstva_1" xmlns="http://www.w3.org/2000/svg" xmlns:xlink="http://www.w3.org/1999/xlink" x="0px" y="0px"
	 viewBox="0 0 112.4292984 208.0187073" style="enable-background:new 0 0 112.4292984 208.0187073;" xml:space="preserve">
<style type="text/css">
	.st0{fill:#4E4E4E;}
</style>
<path class="st0" d="M48.9646988,118.1819992l1.0432014-0.038002c1.6497993-0.066597,3.2168999-0.2524948,4.6555977-0.5513992
	l19.7050018-3.9439011c2.8002014-0.5583954,5.4937973-1.4822006,8.0423965-2.7017975l22.3182983,20.344696l7.7001038-8.4294968
	l-20.3895035-18.585495c7.1808014-6.8481064,11.7565002-16.4717026,11.7565002-26.4737015V48.9604988
	c0-16.9477005-13.7683945-31.5572987-30.6916962-32.5681992l-12.1780014-0.7435999L47.0608978,1.7984999
	C45.9149971,0.6558,44.3325005,0,42.7180977,0H28.9917984c-3.3872986,0-6.1432991,2.7528999-6.1432991,6.1360998v96.1456985
	L0,123.1037979l7.6985998,8.4294968l18.7266006-17.0649948c1.2038994,1.8034973,2.7476006,3.4706039,4.6961994,4.8219986
	l1.3852997,0.9672012l-0.5883999,1.5736008c-2.4913998,6.6333008-1.2706985,12.6696014,0.1922016,16.5664062l0.5892982,1.6126862
	l-1.4232998,0.9480133c-6.2199993,4.2047882-8.4279995,11.6055908-8.4279995,16.6652985v50.3952026h12.2710991v-39.1756134
	c0-4.7597961,1.7584-8.8220978,4.9510994-11.4360962c3.1892014-2.6127014,7.5181999-3.5422974,12.1892014-2.6110992
	l19.7023964,3.9430084c10.5955048,2.1204987,19.5465012,13.026886,19.5465012,23.8158875v25.463913h12.2874985v-25.4481049
	c0-16.8265991-12.919899-32.5731964-29.4123001-35.8460999l-19.7177963-3.9436035
	c-1.4146996-0.2989044-2.9542007-0.4848022-4.5797005-0.550293l-1.0416985-0.0400085l-0.6262016-0.8327026
	c-8.1893997-10.8481903-0.4204979-21.8705978-0.0862007-22.3344955L48.9646988,118.1819992z M40.0697975,102.9511032
	c-1.5963974-1.3148041-2.8324966-2.9697037-3.6759987-4.9178009c-0.8460007-1.9713058-1.2742004-4.1595001-1.2742004-6.504303
	V44.8101006c0-4.9202003,1.9160004-9.4349022,5.3964996-12.7145996c3.4813004-3.267601,8.1057014-4.9034004,13.0241013-4.6109009
	l18.8227997,1.1490002c10.3784027,0.6329994,19.1457977,9.9419003,19.1457977,20.3268986v28.8424034
	c0,10.8054962-8.9509964,21.7111969-19.5465012,23.8153l-19.6850967,3.942894
	c-1.2206993,0.2296066-2.3656998,0.3412018-3.5037003,0.3412018
	C45.4188995,105.902298,42.408699,104.8814011,40.0697975,102.9511032z"/>
</svg>
