<?xml version="1.0" encoding="utf-8"?>
<!-- Generator: Adobe Illustrator 26.4.1, SVG Export Plug-In . SVG Version: 6.00 Build 0)  -->
<svg version="1.1" id="Vrstva_1" xmlns="http://www.w3.org/2000/svg" xmlns:xlink="http://www.w3.org/1999/xlink" x="0px" y="0px"
	 viewBox="0 0 357.1653442 357.1653442" style="enable-background:new 0 0 357.1653442 357.1653442;" xml:space="preserve">
<path d="M24.6321106,0L0,24.6317844V0H24.6321106z M49.2645836,0L0,49.2642975v24.6320267L73.896698,0H49.2645836z M98.5289841,0
	L0,98.5288315v24.6320267L123.1612167,0H98.5289841z M147.793457,0L0,147.7931366v24.6325073L172.4256134,0H147.793457z
	 M197.0579071,0L0,197.057663v24.6325226L221.6900787,0H197.0579071z M246.3223724,0L0,246.3222046v24.6322632L270.9546204,0
	H246.3223724z M295.586853,0L0,295.5869751v24.6320496L320.2190552,0H295.586853z M344.8511658,0L0,344.851532v12.3138123h12.317997
	L357.1653442,12.317955V0H344.8511658z M61.5824585,357.1653442L357.1653442,61.5820084V36.9502258L36.9503479,357.1653442
	H61.5824585z M110.8469849,357.1653442l246.3183594-246.3188019V86.215004L86.2147522,357.1653442H110.8469849z
	 M160.1113892,357.1653442l197.0539551-197.053772v-24.6325073L135.4792175,357.1653442H160.1113892z M209.3758545,357.1653442
	l147.7894897-147.7892303v-24.6325226L184.743927,357.1653442H209.3758545z M258.640564,357.1653442l98.5247803-98.5246887
	v-24.6325226L234.008255,357.1653442H258.640564z M307.9049072,357.1653442l49.260437-49.2604065v-24.6317749
	l-73.8927917,73.8921814H307.9049072z M357.1653442,357.1653442v-24.627655l-24.6280823,24.627655H357.1653442z"/>
</svg>
